<svg xmlns="http://www.w3.org/2000/svg" viewBox="0 0 240 228"><defs><clipPath id="c0"><path d="M64 208a60 8 0 1 0 120 0a60 8 0 1 0 -120 0Z" clip-rule="evenodd"/></clipPath><clipPath id="c1"><path d="M74 132a26 26 0 1 0 52 0a26 26 0 1 0 -52 0ZM63.1 121.1a26 26 0 1 0 52 0a26 26 0 1 0 -52 0Z" clip-rule="evenodd"/></clipPath><clipPath id="c2"><path d="M74 132a26 26 0 1 0 52 0a26 26 0 1 0 -52 0Z" clip-rule="evenodd"/></clipPath></defs><g fill="none" stroke="#111318" stroke-opacity=".78" stroke-linecap="round" stroke-linejoin="round"><g clip-path="url(#c0)"><path d="M149.9 123.4L208.6 233.9" stroke-width="0.45" stroke-opacity="0.55"/><path d="M147 124.9L205.7 235.4" stroke-width="0.45" stroke-opacity="0.55"/><path d="M144.2 126.4L202.9 236.9" stroke-width="0.45" stroke-opacity="0.55"/><path d="M141.4 127.9L200.1 238.4" stroke-width="0.45" stroke-opacity="0.55"/><path d="M138.6 129.4L197.3 239.9" stroke-width="0.45" stroke-opacity="0.55"/><path d="M135.7 130.9L194.4 241.4" stroke-width="0.45" stroke-opacity="0.55"/><path d="M132.9 132.4L191.6 242.9" stroke-width="0.45" stroke-opacity="0.55"/><path d="M130.1 133.9L188.8 244.4" stroke-width="0.45" stroke-opacity="0.55"/><path d="M127.3 135.5L186 245.9" stroke-width="0.45" stroke-opacity="0.55"/><path d="M124.4 137L183.1 247.4" stroke-width="0.45" stroke-opacity="0.55"/><path d="M121.6 138.5L180.3 248.9" stroke-width="0.45" stroke-opacity="0.55"/><path d="M118.8 140L177.5 250.4" stroke-width="0.45" stroke-opacity="0.55"/><path d="M115.9 141.5L174.7 251.9" stroke-width="0.45" stroke-opacity="0.55"/><path d="M113.1 143L171.8 253.4" stroke-width="0.45" stroke-opacity="0.55"/><path d="M110.3 144.5L169 254.9" stroke-width="0.45" stroke-opacity="0.55"/><path d="M107.5 146L166.2 256.4" stroke-width="0.45" stroke-opacity="0.55"/><path d="M104.6 147.5L163.4 257.9" stroke-width="0.45" stroke-opacity="0.55"/><path d="M101.8 149L160.5 259.4" stroke-width="0.45" stroke-opacity="0.55"/><path d="M99 150.5L157.7 260.9" stroke-width="0.45" stroke-opacity="0.55"/><path d="M96.2 152L154.9 262.4" stroke-width="0.45" stroke-opacity="0.55"/><path d="M93.3 153.5L152.1 263.9" stroke-width="0.45" stroke-opacity="0.55"/><path d="M90.5 155L149.2 265.4" stroke-width="0.45" stroke-opacity="0.55"/><path d="M87.7 156.5L146.4 266.9" stroke-width="0.45" stroke-opacity="0.55"/><path d="M84.9 158L143.6 268.4" stroke-width="0.45" stroke-opacity="0.55"/><path d="M82 159.5L140.8 269.9" stroke-width="0.45" stroke-opacity="0.55"/><path d="M79.2 161L137.9 271.4" stroke-width="0.45" stroke-opacity="0.55"/><path d="M76.4 162.5L135.1 272.9" stroke-width="0.45" stroke-opacity="0.55"/><path d="M73.6 164L132.3 274.4" stroke-width="0.45" stroke-opacity="0.55"/><path d="M70.7 165.5L129.5 275.9" stroke-width="0.45" stroke-opacity="0.55"/><path d="M67.9 167L126.6 277.4" stroke-width="0.45" stroke-opacity="0.55"/><path d="M65.1 168.5L123.8 278.9" stroke-width="0.45" stroke-opacity="0.55"/><path d="M62.3 170L121 280.4" stroke-width="0.45" stroke-opacity="0.55"/><path d="M59.4 171.5L118.2 281.9" stroke-width="0.45" stroke-opacity="0.55"/><path d="M56.6 173L115.3 283.4" stroke-width="0.45" stroke-opacity="0.55"/><path d="M53.8 174.5L112.5 284.9" stroke-width="0.45" stroke-opacity="0.55"/><path d="M51 176L109.7 286.4" stroke-width="0.45" stroke-opacity="0.55"/><path d="M48.1 177.5L106.9 287.9" stroke-width="0.45" stroke-opacity="0.55"/><path d="M45.3 179L104 289.4" stroke-width="0.45" stroke-opacity="0.55"/><path d="M42.5 180.5L101.2 290.9" stroke-width="0.45" stroke-opacity="0.55"/><path d="M39.7 182L98.4 292.4" stroke-width="0.45" stroke-opacity="0.55"/></g><path d="M126 6V56" stroke-width="0.8" stroke-opacity="0.75"/><path d="M126 56Q130 64 126 70" stroke-width="1" stroke-opacity="0.8"/><path d="M126 70V150Q126 186 100 186Q76 186 76 160L76 150" stroke-width="5" stroke-opacity="0.9"/><path d="M126 70V150Q126 186 100 186Q76 186 76 160L76 150" stroke="#fafafc" stroke-width="2.2" stroke-opacity="1"/><path d="M76 150L68 162M76 150L86 158" stroke-width="2.4" stroke-opacity="0.9"/><path d="M121 66a5 5 0 1 0 10 0a5 5 0 1 0 -10 0Z" stroke-width="1.4" stroke-opacity="0.85"/><path d="M74 132a26 26 0 1 0 52 0a26 26 0 1 0 -52 0Z" fill="#fafafc" stroke="none"/><g clip-path="url(#c2)"><g clip-path="url(#c1)"><path d="M100 77.2L154.8 132" stroke-width="0.45" stroke-opacity="0.8"/><path d="M98.6 78.6L153.4 133.4" stroke-width="0.45" stroke-opacity="0.8"/><path d="M97.2 80L152 134.8" stroke-width="0.45" stroke-opacity="0.8"/><path d="M95.8 81.4L150.6 136.2" stroke-width="0.45" stroke-opacity="0.8"/><path d="M94.3 82.8L149.2 137.7" stroke-width="0.45" stroke-opacity="0.8"/><path d="M92.9 84.2L147.8 139.1" stroke-width="0.45" stroke-opacity="0.8"/><path d="M91.5 85.7L146.3 140.5" stroke-width="0.45" stroke-opacity="0.8"/><path d="M90.1 87.1L144.9 141.9" stroke-width="0.45" stroke-opacity="0.8"/><path d="M88.7 88.5L143.5 143.3" stroke-width="0.45" stroke-opacity="0.8"/><path d="M87.3 89.9L142.1 144.7" stroke-width="0.45" stroke-opacity="0.8"/><path d="M85.9 91.3L140.7 146.1" stroke-width="0.45" stroke-opacity="0.8"/><path d="M84.4 92.7L139.3 147.6" stroke-width="0.45" stroke-opacity="0.8"/><path d="M83 94.1L137.9 149" stroke-width="0.45" stroke-opacity="0.8"/><path d="M81.6 95.6L136.4 150.4" stroke-width="0.45" stroke-opacity="0.8"/><path d="M80.2 97L135 151.8" stroke-width="0.45" stroke-opacity="0.8"/><path d="M78.8 98.4L133.6 153.2" stroke-width="0.45" stroke-opacity="0.8"/><path d="M77.4 99.8L132.2 154.6" stroke-width="0.45" stroke-opacity="0.8"/><path d="M76 101.2L130.8 156" stroke-width="0.45" stroke-opacity="0.8"/><path d="M74.5 102.6L129.4 157.5" stroke-width="0.45" stroke-opacity="0.8"/><path d="M73.1 104L128 158.9" stroke-width="0.45" stroke-opacity="0.8"/><path d="M71.7 105.5L126.5 160.3" stroke-width="0.45" stroke-opacity="0.8"/><path d="M70.3 106.9L125.1 161.7" stroke-width="0.45" stroke-opacity="0.8"/><path d="M68.9 108.3L123.7 163.1" stroke-width="0.45" stroke-opacity="0.8"/><path d="M67.5 109.7L122.3 164.5" stroke-width="0.45" stroke-opacity="0.8"/><path d="M66.1 111.1L120.9 165.9" stroke-width="0.45" stroke-opacity="0.8"/><path d="M64.6 112.5L119.5 167.4" stroke-width="0.45" stroke-opacity="0.8"/><path d="M63.2 113.9L118.1 168.8" stroke-width="0.45" stroke-opacity="0.8"/><path d="M61.8 115.4L116.6 170.2" stroke-width="0.45" stroke-opacity="0.8"/><path d="M60.4 116.8L115.2 171.6" stroke-width="0.45" stroke-opacity="0.8"/><path d="M59 118.2L113.8 173" stroke-width="0.45" stroke-opacity="0.8"/><path d="M57.6 119.6L112.4 174.4" stroke-width="0.45" stroke-opacity="0.8"/><path d="M56.2 121L111 175.8" stroke-width="0.45" stroke-opacity="0.8"/><path d="M54.7 122.4L109.6 177.3" stroke-width="0.45" stroke-opacity="0.8"/><path d="M53.3 123.8L108.2 178.7" stroke-width="0.45" stroke-opacity="0.8"/><path d="M51.9 125.3L106.7 180.1" stroke-width="0.45" stroke-opacity="0.8"/><path d="M50.5 126.7L105.3 181.5" stroke-width="0.45" stroke-opacity="0.8"/><path d="M49.1 128.1L103.9 182.9" stroke-width="0.45" stroke-opacity="0.8"/><path d="M47.7 129.5L102.5 184.3" stroke-width="0.45" stroke-opacity="0.8"/><path d="M46.3 130.9L101.1 185.7" stroke-width="0.45" stroke-opacity="0.8"/></g></g><path d="M74 132a26 26 0 1 0 52 0a26 26 0 1 0 -52 0Z" stroke-width="1.4" stroke-opacity="0.9"/><path d="M80 132a20 20 0 1 0 40 0a20 20 0 1 0 -40 0Z" stroke-width="0.7" stroke-opacity="0.75"/><path d="M94 120H103Q109 120 109 126Q109 131 103 131H94M103 131Q110 131 110 137Q110 144 103 144H94M96 120V144M100 116V148" stroke-width="1.6" stroke-opacity="0.85"/><path d="M30 30Q38 26 46 30T62 30M164 44Q172 40 180 44T196 44M150 110l6-6M150 104l6 6M44 96l5-5M44 91l5 5" stroke-width="0.8" stroke-opacity="0.6"/></g></svg>