<svg xmlns="http://www.w3.org/2000/svg" viewBox="0 0 240 228"><defs><clipPath id="c0"><path d="M50 208a70 9 0 1 0 140 0a70 9 0 1 0 -140 0Z" clip-rule="evenodd"/></clipPath><clipPath id="c1"><path d="M90 206H150L142 194H98Z" clip-rule="evenodd"/></clipPath><clipPath id="c2"><path d="M50 100a70 70 0 1 0 140 0a70 70 0 1 0 -140 0ZM20.6 70.6a70 70 0 1 0 140 0a70 70 0 1 0 -140 0Z" clip-rule="evenodd"/></clipPath><clipPath id="c3"><path d="M50 100a70 70 0 1 0 140 0a70 70 0 1 0 -140 0Z" clip-rule="evenodd"/></clipPath><clipPath id="c4"><path d="M70 70Q90 50 112 60Q122 78 106 92Q116 118 98 134Q80 120 76 100Q60 90 70 70Z" clip-rule="evenodd"/></clipPath><clipPath id="c5"><path d="M134 54Q160 50 172 70Q164 88 150 86Q158 110 142 126Q132 106 136 82Q126 70 134 54Z" clip-rule="evenodd"/></clipPath></defs><g fill="none" stroke="#111318" stroke-opacity=".78" stroke-linecap="round" stroke-linejoin="round"><g clip-path="url(#c0)"><path d="M150 109.8L218.2 238" stroke-width="0.45" stroke-opacity="0.55"/><path d="M147.2 111.3L215.3 239.5" stroke-width="0.45" stroke-opacity="0.55"/><path d="M144.4 112.9L212.5 241" stroke-width="0.45" stroke-opacity="0.55"/><path d="M141.5 114.4L209.7 242.5" stroke-width="0.45" stroke-opacity="0.55"/><path d="M138.7 115.9L206.9 244" stroke-width="0.45" stroke-opacity="0.55"/><path d="M135.9 117.4L204 245.5" stroke-width="0.45" stroke-opacity="0.55"/><path d="M133.1 118.9L201.2 247" stroke-width="0.45" stroke-opacity="0.55"/><path d="M130.2 120.4L198.4 248.5" stroke-width="0.45" stroke-opacity="0.55"/><path d="M127.4 121.9L195.5 250" stroke-width="0.45" stroke-opacity="0.55"/><path d="M124.6 123.4L192.7 251.5" stroke-width="0.45" stroke-opacity="0.55"/><path d="M121.8 124.9L189.9 253" stroke-width="0.45" stroke-opacity="0.55"/><path d="M118.9 126.4L187.1 254.5" stroke-width="0.45" stroke-opacity="0.55"/><path d="M116.1 127.9L184.2 256" stroke-width="0.45" stroke-opacity="0.55"/><path d="M113.3 129.4L181.4 257.5" stroke-width="0.45" stroke-opacity="0.55"/><path d="M110.5 130.9L178.6 259" stroke-width="0.45" stroke-opacity="0.55"/><path d="M107.6 132.4L175.8 260.5" stroke-width="0.45" stroke-opacity="0.55"/><path d="M104.8 133.9L172.9 262" stroke-width="0.45" stroke-opacity="0.55"/><path d="M102 135.4L170.1 263.5" stroke-width="0.45" stroke-opacity="0.55"/><path d="M99.2 136.9L167.3 265.1" stroke-width="0.45" stroke-opacity="0.55"/><path d="M96.3 138.4L164.5 266.6" stroke-width="0.45" stroke-opacity="0.55"/><path d="M93.5 139.9L161.6 268.1" stroke-width="0.45" stroke-opacity="0.55"/><path d="M90.7 141.4L158.8 269.6" stroke-width="0.45" stroke-opacity="0.55"/><path d="M87.8 142.9L156 271.1" stroke-width="0.45" stroke-opacity="0.55"/><path d="M85 144.4L153.2 272.6" stroke-width="0.45" stroke-opacity="0.55"/><path d="M82.2 145.9L150.3 274.1" stroke-width="0.45" stroke-opacity="0.55"/><path d="M79.4 147.4L147.5 275.6" stroke-width="0.45" stroke-opacity="0.55"/><path d="M76.5 148.9L144.7 277.1" stroke-width="0.45" stroke-opacity="0.55"/><path d="M73.7 150.4L141.9 278.6" stroke-width="0.45" stroke-opacity="0.55"/><path d="M70.9 151.9L139 280.1" stroke-width="0.45" stroke-opacity="0.55"/><path d="M68.1 153.4L136.2 281.6" stroke-width="0.45" stroke-opacity="0.55"/><path d="M65.2 154.9L133.4 283.1" stroke-width="0.45" stroke-opacity="0.55"/><path d="M62.4 156.4L130.6 284.6" stroke-width="0.45" stroke-opacity="0.55"/><path d="M59.6 157.9L127.7 286.1" stroke-width="0.45" stroke-opacity="0.55"/><path d="M56.8 159.4L124.9 287.6" stroke-width="0.45" stroke-opacity="0.55"/><path d="M53.9 160.9L122.1 289.1" stroke-width="0.45" stroke-opacity="0.55"/><path d="M51.1 162.4L119.3 290.6" stroke-width="0.45" stroke-opacity="0.55"/><path d="M48.3 163.9L116.4 292.1" stroke-width="0.45" stroke-opacity="0.55"/><path d="M45.5 165.4L113.6 293.6" stroke-width="0.45" stroke-opacity="0.55"/><path d="M42.6 166.9L110.8 295.1" stroke-width="0.45" stroke-opacity="0.55"/><path d="M39.8 168.4L108 296.6" stroke-width="0.45" stroke-opacity="0.55"/><path d="M37 169.9L105.1 298.1" stroke-width="0.45" stroke-opacity="0.55"/><path d="M34.2 171.4L102.3 299.6" stroke-width="0.45" stroke-opacity="0.55"/><path d="M31.3 172.9L99.5 301.1" stroke-width="0.45" stroke-opacity="0.55"/><path d="M28.5 174.4L96.7 302.6" stroke-width="0.45" stroke-opacity="0.55"/><path d="M25.7 175.9L93.8 304.1" stroke-width="0.45" stroke-opacity="0.55"/><path d="M22.9 177.5L91 305.6" stroke-width="0.45" stroke-opacity="0.55"/></g><path d="M90 206H150L142 194H98Z" stroke-width="1.3" stroke-opacity="0.9"/><g clip-path="url(#c1)"><path d="M87.4 167.4L152.6 167.4" stroke-width="0.45" stroke-opacity="0.8"/><path d="M87.4 169.8L152.6 169.8" stroke-width="0.45" stroke-opacity="0.8"/><path d="M87.4 172.2L152.6 172.2" stroke-width="0.45" stroke-opacity="0.8"/><path d="M87.4 174.6L152.6 174.6" stroke-width="0.45" stroke-opacity="0.8"/><path d="M87.4 177L152.6 177" stroke-width="0.45" stroke-opacity="0.8"/><path d="M87.4 179.4L152.6 179.4" stroke-width="0.45" stroke-opacity="0.8"/><path d="M87.4 181.8L152.6 181.8" stroke-width="0.45" stroke-opacity="0.8"/><path d="M87.4 184.2L152.6 184.2" stroke-width="0.45" stroke-opacity="0.8"/><path d="M87.4 186.6L152.6 186.6" stroke-width="0.45" stroke-opacity="0.8"/><path d="M87.4 189L152.6 189" stroke-width="0.45" stroke-opacity="0.8"/><path d="M87.4 191.4L152.6 191.4" stroke-width="0.45" stroke-opacity="0.8"/><path d="M87.4 193.8L152.6 193.8" stroke-width="0.45" stroke-opacity="0.8"/><path d="M87.4 196.2L152.6 196.2" stroke-width="0.45" stroke-opacity="0.8"/><path d="M87.4 198.6L152.6 198.6" stroke-width="0.45" stroke-opacity="0.8"/><path d="M87.4 201L152.6 201" stroke-width="0.45" stroke-opacity="0.8"/><path d="M87.4 203.4L152.6 203.4" stroke-width="0.45" stroke-opacity="0.8"/><path d="M87.4 205.8L152.6 205.8" stroke-width="0.45" stroke-opacity="0.8"/><path d="M87.4 208.2L152.6 208.2" stroke-width="0.45" stroke-opacity="0.8"/><path d="M87.4 210.6L152.6 210.6" stroke-width="0.45" stroke-opacity="0.8"/><path d="M87.4 213L152.6 213" stroke-width="0.45" stroke-opacity="0.8"/><path d="M87.4 215.4L152.6 215.4" stroke-width="0.45" stroke-opacity="0.8"/><path d="M87.4 217.8L152.6 217.8" stroke-width="0.45" stroke-opacity="0.8"/><path d="M87.4 220.2L152.6 220.2" stroke-width="0.45" stroke-opacity="0.8"/><path d="M87.4 222.6L152.6 222.6" stroke-width="0.45" stroke-opacity="0.8"/><path d="M87.4 225L152.6 225" stroke-width="0.45" stroke-opacity="0.8"/><path d="M87.4 227.4L152.6 227.4" stroke-width="0.45" stroke-opacity="0.8"/><path d="M87.4 229.8L152.6 229.8" stroke-width="0.45" stroke-opacity="0.8"/><path d="M87.4 232.2L152.6 232.2" stroke-width="0.45" stroke-opacity="0.8"/></g><path d="M120 194V178" stroke-width="2.2" stroke-opacity="0.85"/><path d="M40 100A80 80 0 0 0 200 100" stroke-width="1.6" stroke-opacity="0.85"/><path d="M44 100A76 76 0 0 0 196 100" stroke-width="0.6" stroke-opacity="0.7"/><path d="M50 100a70 70 0 1 0 140 0a70 70 0 1 0 -140 0Z" fill="#fafafc" stroke="none"/><g clip-path="url(#c3)"><g clip-path="url(#c2)"><path d="M144.8 -40.7L260.7 124.8" stroke-width="0.45" stroke-opacity="0.75"/><path d="M142.8 -39.3L258.7 126.2" stroke-width="0.45" stroke-opacity="0.75"/><path d="M140.9 -37.9L256.7 127.6" stroke-width="0.45" stroke-opacity="0.75"/><path d="M138.9 -36.5L254.8 128.9" stroke-width="0.45" stroke-opacity="0.75"/><path d="M136.9 -35.2L252.8 130.3" stroke-width="0.45" stroke-opacity="0.75"/><path d="M135 -33.8L250.8 131.7" stroke-width="0.45" stroke-opacity="0.75"/><path d="M133 -32.4L248.9 133.1" stroke-width="0.45" stroke-opacity="0.75"/><path d="M131 -31L246.9 134.4" stroke-width="0.45" stroke-opacity="0.75"/><path d="M129.1 -29.6L244.9 135.8" stroke-width="0.45" stroke-opacity="0.75"/><path d="M127.1 -28.3L243 137.2" stroke-width="0.45" stroke-opacity="0.75"/><path d="M125.1 -26.9L241 138.6" stroke-width="0.45" stroke-opacity="0.75"/><path d="M123.2 -25.5L239 139.9" stroke-width="0.45" stroke-opacity="0.75"/><path d="M121.2 -24.1L237.1 141.3" stroke-width="0.45" stroke-opacity="0.75"/><path d="M119.2 -22.8L235.1 142.7" stroke-width="0.45" stroke-opacity="0.75"/><path d="M117.3 -21.4L233.1 144.1" stroke-width="0.45" stroke-opacity="0.75"/><path d="M115.3 -20L231.2 145.5" stroke-width="0.45" stroke-opacity="0.75"/><path d="M113.3 -18.6L229.2 146.8" stroke-width="0.45" stroke-opacity="0.75"/><path d="M111.4 -17.3L227.2 148.2" stroke-width="0.45" stroke-opacity="0.75"/><path d="M109.4 -15.9L225.3 149.6" stroke-width="0.45" stroke-opacity="0.75"/><path d="M107.4 -14.5L223.3 151" stroke-width="0.45" stroke-opacity="0.75"/><path d="M105.5 -13.1L221.3 152.3" stroke-width="0.45" stroke-opacity="0.75"/><path d="M103.5 -11.8L219.4 153.7" stroke-width="0.45" stroke-opacity="0.75"/><path d="M101.6 -10.4L217.4 155.1" stroke-width="0.45" stroke-opacity="0.75"/><path d="M99.6 -9L215.4 156.5" stroke-width="0.45" stroke-opacity="0.75"/><path d="M97.6 -7.6L213.5 157.8" stroke-width="0.45" stroke-opacity="0.75"/><path d="M95.7 -6.2L211.5 159.2" stroke-width="0.45" stroke-opacity="0.75"/><path d="M93.7 -4.9L209.5 160.6" stroke-width="0.45" stroke-opacity="0.75"/><path d="M91.7 -3.5L207.6 162" stroke-width="0.45" stroke-opacity="0.75"/><path d="M89.8 -2.1L205.6 163.3" stroke-width="0.45" stroke-opacity="0.75"/><path d="M87.8 -0.7L203.6 164.7" stroke-width="0.45" stroke-opacity="0.75"/><path d="M85.8 0.6L201.7 166.1" stroke-width="0.45" stroke-opacity="0.75"/><path d="M83.9 2L199.7 167.5" stroke-width="0.45" stroke-opacity="0.75"/><path d="M81.9 3.4L197.7 168.9" stroke-width="0.45" stroke-opacity="0.75"/><path d="M79.9 4.8L195.8 170.2" stroke-width="0.45" stroke-opacity="0.75"/><path d="M78 6.1L193.8 171.6" stroke-width="0.45" stroke-opacity="0.75"/><path d="M76 7.5L191.8 173" stroke-width="0.45" stroke-opacity="0.75"/><path d="M74 8.9L189.9 174.4" stroke-width="0.45" stroke-opacity="0.75"/><path d="M72.1 10.3L187.9 175.7" stroke-width="0.45" stroke-opacity="0.75"/><path d="M70.1 11.7L186 177.1" stroke-width="0.45" stroke-opacity="0.75"/><path d="M68.1 13L184 178.5" stroke-width="0.45" stroke-opacity="0.75"/><path d="M66.2 14.4L182 179.9" stroke-width="0.45" stroke-opacity="0.75"/><path d="M64.2 15.8L180.1 181.2" stroke-width="0.45" stroke-opacity="0.75"/><path d="M62.2 17.2L178.1 182.6" stroke-width="0.45" stroke-opacity="0.75"/><path d="M60.3 18.5L176.1 184" stroke-width="0.45" stroke-opacity="0.75"/><path d="M58.3 19.9L174.2 185.4" stroke-width="0.45" stroke-opacity="0.75"/><path d="M56.3 21.3L172.2 186.7" stroke-width="0.45" stroke-opacity="0.75"/><path d="M54.4 22.7L170.2 188.1" stroke-width="0.45" stroke-opacity="0.75"/><path d="M52.4 24L168.3 189.5" stroke-width="0.45" stroke-opacity="0.75"/><path d="M50.4 25.4L166.3 190.9" stroke-width="0.45" stroke-opacity="0.75"/><path d="M48.5 26.8L164.3 192.3" stroke-width="0.45" stroke-opacity="0.75"/><path d="M46.5 28.2L162.4 193.6" stroke-width="0.45" stroke-opacity="0.75"/><path d="M44.5 29.5L160.4 195" stroke-width="0.45" stroke-opacity="0.75"/><path d="M42.6 30.9L158.4 196.4" stroke-width="0.45" stroke-opacity="0.75"/><path d="M40.6 32.3L156.5 197.8" stroke-width="0.45" stroke-opacity="0.75"/><path d="M38.6 33.7L154.5 199.1" stroke-width="0.45" stroke-opacity="0.75"/><path d="M36.7 35.1L152.5 200.5" stroke-width="0.45" stroke-opacity="0.75"/><path d="M34.7 36.4L150.6 201.9" stroke-width="0.45" stroke-opacity="0.75"/><path d="M32.7 37.8L148.6 203.3" stroke-width="0.45" stroke-opacity="0.75"/><path d="M30.8 39.2L146.6 204.6" stroke-width="0.45" stroke-opacity="0.75"/><path d="M28.8 40.6L144.7 206" stroke-width="0.45" stroke-opacity="0.75"/><path d="M26.8 41.9L142.7 207.4" stroke-width="0.45" stroke-opacity="0.75"/><path d="M24.9 43.3L140.7 208.8" stroke-width="0.45" stroke-opacity="0.75"/><path d="M22.9 44.7L138.8 210.2" stroke-width="0.45" stroke-opacity="0.75"/><path d="M20.9 46.1L136.8 211.5" stroke-width="0.45" stroke-opacity="0.75"/><path d="M19 47.4L134.8 212.9" stroke-width="0.45" stroke-opacity="0.75"/><path d="M17 48.8L132.9 214.3" stroke-width="0.45" stroke-opacity="0.75"/><path d="M15 50.2L130.9 215.7" stroke-width="0.45" stroke-opacity="0.75"/><path d="M13.1 51.6L128.9 217" stroke-width="0.45" stroke-opacity="0.75"/><path d="M11.1 52.9L127 218.4" stroke-width="0.45" stroke-opacity="0.75"/><path d="M9.2 54.3L125 219.8" stroke-width="0.45" stroke-opacity="0.75"/><path d="M7.2 55.7L123 221.2" stroke-width="0.45" stroke-opacity="0.75"/><path d="M5.2 57.1L121.1 222.5" stroke-width="0.45" stroke-opacity="0.75"/><path d="M3.3 58.5L119.1 223.9" stroke-width="0.45" stroke-opacity="0.75"/><path d="M1.3 59.8L117.1 225.3" stroke-width="0.45" stroke-opacity="0.75"/><path d="M-0.7 61.2L115.2 226.7" stroke-width="0.45" stroke-opacity="0.75"/><path d="M-2.6 62.6L113.2 228" stroke-width="0.45" stroke-opacity="0.75"/><path d="M-4.6 64L111.2 229.4" stroke-width="0.45" stroke-opacity="0.75"/><path d="M-6.6 65.3L109.3 230.8" stroke-width="0.45" stroke-opacity="0.75"/><path d="M-8.5 66.7L107.3 232.2" stroke-width="0.45" stroke-opacity="0.75"/><path d="M-10.5 68.1L105.3 233.6" stroke-width="0.45" stroke-opacity="0.75"/><path d="M-12.5 69.5L103.4 234.9" stroke-width="0.45" stroke-opacity="0.75"/><path d="M-14.4 70.8L101.4 236.3" stroke-width="0.45" stroke-opacity="0.75"/><path d="M-16.4 72.2L99.4 237.7" stroke-width="0.45" stroke-opacity="0.75"/><path d="M-18.4 73.6L97.5 239.1" stroke-width="0.45" stroke-opacity="0.75"/><path d="M-20.3 75L95.5 240.4" stroke-width="0.45" stroke-opacity="0.75"/></g></g><path d="M120 30A17.5 70 0 0 0 120 170A17.5 70 0 0 0 120 30" stroke-width="0.6" stroke-opacity="0.7"/><path d="M120 30A38.5 70 0 0 0 120 170A38.5 70 0 0 0 120 30" stroke-width="0.6" stroke-opacity="0.7"/><path d="M120 30A59.5 70 0 0 0 120 170A59.5 70 0 0 0 120 30" stroke-width="0.6" stroke-opacity="0.7"/><path d="M67.4 53.8Q120 61.3 172.6 53.8" stroke-width="0.6" stroke-opacity="0.7"/><path d="M53.9 76.9Q120 86.3 186.1 76.9" stroke-width="0.6" stroke-opacity="0.7"/><path d="M50 100Q120 110 190 100" stroke-width="0.6" stroke-opacity="0.7"/><path d="M53.9 123.1Q120 132.5 186.1 123.1" stroke-width="0.6" stroke-opacity="0.7"/><path d="M67.4 146.2Q120 153.7 172.6 146.2" stroke-width="0.6" stroke-opacity="0.7"/><g clip-path="url(#c4)"><path d="M16.8 72.4L109.6 18.8" stroke-width="0.45" stroke-opacity="0.8"/><path d="M17.9 74.3L110.7 20.7" stroke-width="0.45" stroke-opacity="0.8"/><path d="M19 76.2L111.8 22.6" stroke-width="0.45" stroke-opacity="0.8"/><path d="M20.1 78.1L112.9 24.5" stroke-width="0.45" stroke-opacity="0.8"/><path d="M21.2 80L114 26.4" stroke-width="0.45" stroke-opacity="0.8"/><path d="M22.3 81.9L115.1 28.3" stroke-width="0.45" stroke-opacity="0.8"/><path d="M23.4 83.8L116.2 30.2" stroke-width="0.45" stroke-opacity="0.8"/><path d="M24.5 85.7L117.3 32.1" stroke-width="0.45" stroke-opacity="0.8"/><path d="M25.6 87.6L118.4 34" stroke-width="0.45" stroke-opacity="0.8"/><path d="M26.7 89.5L119.5 35.9" stroke-width="0.45" stroke-opacity="0.8"/><path d="M27.8 91.4L120.6 37.8" stroke-width="0.45" stroke-opacity="0.8"/><path d="M28.9 93.3L121.7 39.7" stroke-width="0.45" stroke-opacity="0.8"/><path d="M30 95.2L122.8 41.6" stroke-width="0.45" stroke-opacity="0.8"/><path d="M31.1 97.1L123.9 43.5" stroke-width="0.45" stroke-opacity="0.8"/><path d="M32.2 99L125 45.4" stroke-width="0.45" stroke-opacity="0.8"/><path d="M33.3 101L126.1 47.3" stroke-width="0.45" stroke-opacity="0.8"/><path d="M34.4 102.9L127.2 49.2" stroke-width="0.45" stroke-opacity="0.8"/><path d="M35.5 104.8L128.3 51.2" stroke-width="0.45" stroke-opacity="0.8"/><path d="M36.6 106.7L129.4 53.1" stroke-width="0.45" stroke-opacity="0.8"/><path d="M37.7 108.6L130.5 55" stroke-width="0.45" stroke-opacity="0.8"/><path d="M38.8 110.5L131.6 56.9" stroke-width="0.45" stroke-opacity="0.8"/><path d="M39.9 112.4L132.7 58.8" stroke-width="0.45" stroke-opacity="0.8"/><path d="M41 114.3L133.8 60.7" stroke-width="0.45" stroke-opacity="0.8"/><path d="M42.1 116.2L134.9 62.6" stroke-width="0.45" stroke-opacity="0.8"/><path d="M43.2 118.1L136 64.5" stroke-width="0.45" stroke-opacity="0.8"/><path d="M44.3 120L137.1 66.4" stroke-width="0.45" stroke-opacity="0.8"/><path d="M45.4 121.9L138.2 68.3" stroke-width="0.45" stroke-opacity="0.8"/><path d="M46.5 123.8L139.3 70.2" stroke-width="0.45" stroke-opacity="0.8"/><path d="M47.6 125.7L140.4 72.1" stroke-width="0.45" stroke-opacity="0.8"/><path d="M48.7 127.6L141.5 74" stroke-width="0.45" stroke-opacity="0.8"/><path d="M49.8 129.5L142.6 75.9" stroke-width="0.45" stroke-opacity="0.8"/><path d="M50.9 131.4L143.7 77.8" stroke-width="0.45" stroke-opacity="0.8"/><path d="M52 133.3L144.8 79.7" stroke-width="0.45" stroke-opacity="0.8"/><path d="M53.1 135.2L145.9 81.6" stroke-width="0.45" stroke-opacity="0.8"/><path d="M54.2 137.2L147 83.5" stroke-width="0.45" stroke-opacity="0.8"/><path d="M55.3 139.1L148.1 85.4" stroke-width="0.45" stroke-opacity="0.8"/><path d="M56.4 141L149.2 87.4" stroke-width="0.45" stroke-opacity="0.8"/><path d="M57.5 142.9L150.3 89.3" stroke-width="0.45" stroke-opacity="0.8"/><path d="M58.6 144.8L151.4 91.2" stroke-width="0.45" stroke-opacity="0.8"/><path d="M59.7 146.7L152.5 93.1" stroke-width="0.45" stroke-opacity="0.8"/><path d="M60.8 148.6L153.6 95" stroke-width="0.45" stroke-opacity="0.8"/><path d="M61.9 150.5L154.7 96.9" stroke-width="0.45" stroke-opacity="0.8"/><path d="M63 152.4L155.8 98.8" stroke-width="0.45" stroke-opacity="0.8"/><path d="M64.1 154.3L156.9 100.7" stroke-width="0.45" stroke-opacity="0.8"/><path d="M65.2 156.2L158 102.6" stroke-width="0.45" stroke-opacity="0.8"/><path d="M66.3 158.1L159.1 104.5" stroke-width="0.45" stroke-opacity="0.8"/><path d="M67.4 160L160.2 106.4" stroke-width="0.45" stroke-opacity="0.8"/><path d="M68.5 161.9L161.3 108.3" stroke-width="0.45" stroke-opacity="0.8"/><path d="M69.6 163.8L162.4 110.2" stroke-width="0.45" stroke-opacity="0.8"/></g><path d="M70 70Q90 50 112 60Q122 78 106 92Q116 118 98 134Q80 120 76 100Q60 90 70 70Z" stroke-width="0.9" stroke-opacity="0.85"/><g clip-path="url(#c5)"><path d="M85.6 71L166 24.6" stroke-width="0.45" stroke-opacity="0.8"/><path d="M86.7 72.9L167.1 26.5" stroke-width="0.45" stroke-opacity="0.8"/><path d="M87.8 74.8L168.2 28.4" stroke-width="0.45" stroke-opacity="0.8"/><path d="M88.9 76.7L169.3 30.3" stroke-width="0.45" stroke-opacity="0.8"/><path d="M90 78.6L170.4 32.2" stroke-width="0.45" stroke-opacity="0.8"/><path d="M91.1 80.5L171.5 34.1" stroke-width="0.45" stroke-opacity="0.8"/><path d="M92.2 82.4L172.6 36" stroke-width="0.45" stroke-opacity="0.8"/><path d="M93.3 84.3L173.7 37.9" stroke-width="0.45" stroke-opacity="0.8"/><path d="M94.4 86.3L174.8 39.8" stroke-width="0.45" stroke-opacity="0.8"/><path d="M95.5 88.2L175.9 41.7" stroke-width="0.45" stroke-opacity="0.8"/><path d="M96.6 90.1L177 43.6" stroke-width="0.45" stroke-opacity="0.8"/><path d="M97.7 92L178.1 45.5" stroke-width="0.45" stroke-opacity="0.8"/><path d="M98.8 93.9L179.2 47.5" stroke-width="0.45" stroke-opacity="0.8"/><path d="M99.9 95.8L180.3 49.4" stroke-width="0.45" stroke-opacity="0.8"/><path d="M101 97.7L181.4 51.3" stroke-width="0.45" stroke-opacity="0.8"/><path d="M102.1 99.6L182.5 53.2" stroke-width="0.45" stroke-opacity="0.8"/><path d="M103.2 101.5L183.6 55.1" stroke-width="0.45" stroke-opacity="0.8"/><path d="M104.3 103.4L184.7 57" stroke-width="0.45" stroke-opacity="0.8"/><path d="M105.4 105.3L185.8 58.9" stroke-width="0.45" stroke-opacity="0.8"/><path d="M106.5 107.2L186.9 60.8" stroke-width="0.45" stroke-opacity="0.8"/><path d="M107.6 109.1L188 62.7" stroke-width="0.45" stroke-opacity="0.8"/><path d="M108.7 111L189.1 64.6" stroke-width="0.45" stroke-opacity="0.8"/><path d="M109.8 112.9L190.2 66.5" stroke-width="0.45" stroke-opacity="0.8"/><path d="M110.9 114.8L191.3 68.4" stroke-width="0.45" stroke-opacity="0.8"/><path d="M112 116.7L192.4 70.3" stroke-width="0.45" stroke-opacity="0.8"/><path d="M113.1 118.6L193.5 72.2" stroke-width="0.45" stroke-opacity="0.8"/><path d="M114.2 120.5L194.6 74.1" stroke-width="0.45" stroke-opacity="0.8"/><path d="M115.3 122.5L195.7 76" stroke-width="0.45" stroke-opacity="0.8"/><path d="M116.4 124.4L196.8 77.9" stroke-width="0.45" stroke-opacity="0.8"/><path d="M117.5 126.3L197.9 79.8" stroke-width="0.45" stroke-opacity="0.8"/><path d="M118.6 128.2L199 81.7" stroke-width="0.45" stroke-opacity="0.8"/><path d="M119.7 130.1L200.1 83.7" stroke-width="0.45" stroke-opacity="0.8"/><path d="M120.8 132L201.2 85.6" stroke-width="0.45" stroke-opacity="0.8"/><path d="M121.9 133.9L202.3 87.5" stroke-width="0.45" stroke-opacity="0.8"/><path d="M123 135.8L203.4 89.4" stroke-width="0.45" stroke-opacity="0.8"/><path d="M124.1 137.7L204.5 91.3" stroke-width="0.45" stroke-opacity="0.8"/><path d="M125.2 139.6L205.6 93.2" stroke-width="0.45" stroke-opacity="0.8"/><path d="M126.3 141.5L206.7 95.1" stroke-width="0.45" stroke-opacity="0.8"/><path d="M127.4 143.4L207.8 97" stroke-width="0.45" stroke-opacity="0.8"/><path d="M128.5 145.3L208.9 98.9" stroke-width="0.45" stroke-opacity="0.8"/><path d="M129.6 147.2L210 100.8" stroke-width="0.45" stroke-opacity="0.8"/><path d="M130.7 149.1L211.1 102.7" stroke-width="0.45" stroke-opacity="0.8"/><path d="M131.8 151L212.2 104.6" stroke-width="0.45" stroke-opacity="0.8"/></g><path d="M134 54Q160 50 172 70Q164 88 150 86Q158 110 142 126Q132 106 136 82Q126 70 134 54Z" stroke-width="0.9" stroke-opacity="0.85"/><path d="M50 100a70 70 0 1 0 140 0a70 70 0 1 0 -140 0Z" stroke-width="1.5" stroke-opacity="0.9"/><path d="M120 20V30" stroke-width="1.4" stroke-opacity="0.85"/></g></svg>