<svg xmlns="http://www.w3.org/2000/svg" viewBox="0 0 240 228"><defs><clipPath id="c0"><path d="M46 206a74 10 0 1 0 148 0a74 10 0 1 0 -148 0Z" clip-rule="evenodd"/></clipPath><clipPath id="c1"><path d="M124 206L148 206L156 170L128 170Z" clip-rule="evenodd"/></clipPath><clipPath id="c2"><path d="M87 72A9 7.2 0 0 0 105 72V75A9 7.2 0 0 1 87 75Z" clip-rule="evenodd"/></clipPath><clipPath id="c3"><path d="M141 76A9 7.2 0 0 0 159 76V79A9 7.2 0 0 1 141 79Z" clip-rule="evenodd"/></clipPath><clipPath id="c4"><path d="M64 104A8 6.4 0 0 0 80 104V107A8 6.4 0 0 1 64 107Z" clip-rule="evenodd"/></clipPath><clipPath id="c5"><path d="M166 118A8 6.4 0 0 0 182 118V121A8 6.4 0 0 1 166 121Z" clip-rule="evenodd"/></clipPath><clipPath id="c6"><path d="M110 70A10 8 0 0 0 130 70V73A10 8 0 0 1 110 73Z" clip-rule="evenodd"/></clipPath><clipPath id="c7"><path d="M125 98A7 5.6000000000000005 0 0 0 139 98V101A7 5.6000000000000005 0 0 1 125 101Z" clip-rule="evenodd"/></clipPath><clipPath id="c8"><path d="M99 102A7 5.6000000000000005 0 0 0 113 102V105A7 5.6000000000000005 0 0 1 99 105Z" clip-rule="evenodd"/></clipPath></defs><g fill="none" stroke="#111318" stroke-opacity=".78" stroke-linecap="round" stroke-linejoin="round"><g clip-path="url(#c0)"><path d="M151.7 102.3L223.7 237.7" stroke-width="0.45" stroke-opacity="0.55"/><path d="M148.9 103.8L220.9 239.2" stroke-width="0.45" stroke-opacity="0.55"/><path d="M146.1 105.3L218 240.7" stroke-width="0.45" stroke-opacity="0.55"/><path d="M143.2 106.8L215.2 242.2" stroke-width="0.45" stroke-opacity="0.55"/><path d="M140.4 108.3L212.4 243.7" stroke-width="0.45" stroke-opacity="0.55"/><path d="M137.6 109.8L209.6 245.2" stroke-width="0.45" stroke-opacity="0.55"/><path d="M134.7 111.3L206.7 246.7" stroke-width="0.45" stroke-opacity="0.55"/><path d="M131.9 112.8L203.9 248.2" stroke-width="0.45" stroke-opacity="0.55"/><path d="M129.1 114.3L201.1 249.7" stroke-width="0.45" stroke-opacity="0.55"/><path d="M126.3 115.8L198.3 251.2" stroke-width="0.45" stroke-opacity="0.55"/><path d="M123.4 117.3L195.4 252.7" stroke-width="0.45" stroke-opacity="0.55"/><path d="M120.6 118.8L192.6 254.2" stroke-width="0.45" stroke-opacity="0.55"/><path d="M117.8 120.3L189.8 255.7" stroke-width="0.45" stroke-opacity="0.55"/><path d="M115 121.8L187 257.2" stroke-width="0.45" stroke-opacity="0.55"/><path d="M112.1 123.3L184.1 258.7" stroke-width="0.45" stroke-opacity="0.55"/><path d="M109.3 124.8L181.3 260.2" stroke-width="0.45" stroke-opacity="0.55"/><path d="M106.5 126.3L178.5 261.7" stroke-width="0.45" stroke-opacity="0.55"/><path d="M103.7 127.8L175.7 263.2" stroke-width="0.45" stroke-opacity="0.55"/><path d="M100.8 129.3L172.8 264.7" stroke-width="0.45" stroke-opacity="0.55"/><path d="M98 130.9L170 266.2" stroke-width="0.45" stroke-opacity="0.55"/><path d="M95.2 132.4L167.2 267.7" stroke-width="0.45" stroke-opacity="0.55"/><path d="M92.4 133.9L164.4 269.3" stroke-width="0.45" stroke-opacity="0.55"/><path d="M89.5 135.4L161.5 270.8" stroke-width="0.45" stroke-opacity="0.55"/><path d="M86.7 136.9L158.7 272.3" stroke-width="0.45" stroke-opacity="0.55"/><path d="M83.9 138.4L155.9 273.8" stroke-width="0.45" stroke-opacity="0.55"/><path d="M81.1 139.9L153.1 275.3" stroke-width="0.45" stroke-opacity="0.55"/><path d="M78.2 141.4L150.2 276.8" stroke-width="0.45" stroke-opacity="0.55"/><path d="M75.4 142.9L147.4 278.3" stroke-width="0.45" stroke-opacity="0.55"/><path d="M72.6 144.4L144.6 279.8" stroke-width="0.45" stroke-opacity="0.55"/><path d="M69.8 145.9L141.8 281.3" stroke-width="0.45" stroke-opacity="0.55"/><path d="M66.9 147.4L138.9 282.8" stroke-width="0.45" stroke-opacity="0.55"/><path d="M64.1 148.9L136.1 284.3" stroke-width="0.45" stroke-opacity="0.55"/><path d="M61.3 150.4L133.3 285.8" stroke-width="0.45" stroke-opacity="0.55"/><path d="M58.5 151.9L130.5 287.3" stroke-width="0.45" stroke-opacity="0.55"/><path d="M55.6 153.4L127.6 288.8" stroke-width="0.45" stroke-opacity="0.55"/><path d="M52.8 154.9L124.8 290.3" stroke-width="0.45" stroke-opacity="0.55"/><path d="M50 156.4L122 291.8" stroke-width="0.45" stroke-opacity="0.55"/><path d="M47.2 157.9L119.2 293.3" stroke-width="0.45" stroke-opacity="0.55"/><path d="M44.3 159.4L116.3 294.8" stroke-width="0.45" stroke-opacity="0.55"/><path d="M41.5 160.9L113.5 296.3" stroke-width="0.45" stroke-opacity="0.55"/><path d="M38.7 162.4L110.7 297.8" stroke-width="0.45" stroke-opacity="0.55"/><path d="M35.9 163.9L107.9 299.3" stroke-width="0.45" stroke-opacity="0.55"/><path d="M33 165.4L105 300.8" stroke-width="0.45" stroke-opacity="0.55"/><path d="M30.2 166.9L102.2 302.3" stroke-width="0.45" stroke-opacity="0.55"/><path d="M27.4 168.4L99.4 303.8" stroke-width="0.45" stroke-opacity="0.55"/><path d="M24.6 169.9L96.5 305.3" stroke-width="0.45" stroke-opacity="0.55"/><path d="M21.7 171.4L93.7 306.8" stroke-width="0.45" stroke-opacity="0.55"/><path d="M18.9 172.9L90.9 308.3" stroke-width="0.45" stroke-opacity="0.55"/></g><path d="M92 206L148 206L156 170L84 170Z" fill="#fafafc" stroke="none"/><g clip-path="url(#c1)"><path d="M158.4 156.1L171.9 206.4" stroke-width="0.45" stroke-opacity="0.85"/><path d="M156.3 156.6L169.8 207" stroke-width="0.45" stroke-opacity="0.85"/><path d="M154.2 157.2L167.7 207.6" stroke-width="0.45" stroke-opacity="0.85"/><path d="M152.1 157.8L165.6 208.2" stroke-width="0.45" stroke-opacity="0.85"/><path d="M149.9 158.3L163.4 208.7" stroke-width="0.45" stroke-opacity="0.85"/><path d="M147.8 158.9L161.3 209.3" stroke-width="0.45" stroke-opacity="0.85"/><path d="M145.7 159.5L159.2 209.9" stroke-width="0.45" stroke-opacity="0.85"/><path d="M143.6 160L157.1 210.4" stroke-width="0.45" stroke-opacity="0.85"/><path d="M141.4 160.6L154.9 211" stroke-width="0.45" stroke-opacity="0.85"/><path d="M139.3 161.2L152.8 211.6" stroke-width="0.45" stroke-opacity="0.85"/><path d="M137.2 161.7L150.7 212.1" stroke-width="0.45" stroke-opacity="0.85"/><path d="M135.1 162.3L148.6 212.7" stroke-width="0.45" stroke-opacity="0.85"/><path d="M132.9 162.9L146.4 213.3" stroke-width="0.45" stroke-opacity="0.85"/><path d="M130.8 163.5L144.3 213.8" stroke-width="0.45" stroke-opacity="0.85"/><path d="M128.7 164L142.2 214.4" stroke-width="0.45" stroke-opacity="0.85"/><path d="M126.6 164.6L140.1 215" stroke-width="0.45" stroke-opacity="0.85"/><path d="M124.4 165.2L137.9 215.6" stroke-width="0.45" stroke-opacity="0.85"/><path d="M122.3 165.7L135.8 216.1" stroke-width="0.45" stroke-opacity="0.85"/><path d="M120.2 166.3L133.7 216.7" stroke-width="0.45" stroke-opacity="0.85"/><path d="M118.1 166.9L131.6 217.3" stroke-width="0.45" stroke-opacity="0.85"/><path d="M115.9 167.4L129.4 217.8" stroke-width="0.45" stroke-opacity="0.85"/><path d="M113.8 168L127.3 218.4" stroke-width="0.45" stroke-opacity="0.85"/><path d="M111.7 168.6L125.2 219" stroke-width="0.45" stroke-opacity="0.85"/><path d="M109.6 169.2L123.1 219.5" stroke-width="0.45" stroke-opacity="0.85"/></g><path d="M92 206L148 206L156 170L84 170Z" stroke-width="1.3" stroke-opacity="0.9"/><path d="M80 170L160 170L160 162L80 162Z" stroke-width="1.2" stroke-opacity="0.9"/><path d="M114 162Q112 130 104 112Q96 96 82 88M126 162Q128 128 140 108Q150 94 166 86M118 162Q118 120 120 70" stroke-width="2.4" stroke-opacity="0.85"/><path d="M104 112Q112 100 120 98M140 108Q132 96 120 92" stroke-width="1.4" stroke-opacity="0.8"/><path d="M121 74Q108 64 96 66M120 82Q134 70 150 70M100 96Q88 90 72 98M142 100Q160 104 174 112" stroke-width="1" stroke-opacity="0.8"/><path d="M58 82Q70 75 82 82Q70 89 58 82Z" transform="rotate(-30 70 82)" stroke-width=".9" stroke-opacity=".85"/><path d="M60 82H80" transform="rotate(-30 70 82)" stroke-width=".5" stroke-opacity=".6"/><path d="M76 58Q88 51 100 58Q88 65 76 58Z" transform="rotate(-10 88 58)" stroke-width=".9" stroke-opacity=".85"/><path d="M78 58H98" transform="rotate(-10 88 58)" stroke-width=".5" stroke-opacity=".6"/><path d="M148 62Q160 55 172 62Q160 69 148 62Z" transform="rotate(20 160 62)" stroke-width=".9" stroke-opacity=".85"/><path d="M150 62H170" transform="rotate(20 160 62)" stroke-width=".5" stroke-opacity=".6"/><path d="M172 96Q184 89 196 96Q184 103 172 96Z" transform="rotate(40 184 96)" stroke-width=".9" stroke-opacity=".85"/><path d="M174 96H194" transform="rotate(40 184 96)" stroke-width=".5" stroke-opacity=".6"/><path d="M48 104Q60 97 72 104Q60 111 48 104Z" transform="rotate(-50 60 104)" stroke-width=".9" stroke-opacity=".85"/><path d="M50 104H70" transform="rotate(-50 60 104)" stroke-width=".5" stroke-opacity=".6"/><path d="M87 72A9 7.2 0 0 0 105 72V75A9 7.2 0 0 1 87 75Z" fill="#fafafc" stroke="none"/><path d="M87 72a9 7.2 0 1 0 18 0a9 7.2 0 1 0 -18 0Z" fill="#fafafc" stroke="none"/><g clip-path="url(#c2)"><path d="M108.3 64.8L108.3 89.4" stroke-width="0.45" stroke-opacity="0.8"/><path d="M106.9 64.8L106.9 89.4" stroke-width="0.45" stroke-opacity="0.8"/><path d="M105.5 64.8L105.5 89.4" stroke-width="0.45" stroke-opacity="0.8"/><path d="M104.1 64.8L104.1 89.4" stroke-width="0.45" stroke-opacity="0.8"/><path d="M102.7 64.8L102.7 89.4" stroke-width="0.45" stroke-opacity="0.8"/><path d="M101.3 64.8L101.3 89.4" stroke-width="0.45" stroke-opacity="0.8"/><path d="M99.9 64.8L99.9 89.4" stroke-width="0.45" stroke-opacity="0.8"/><path d="M98.5 64.8L98.5 89.4" stroke-width="0.45" stroke-opacity="0.8"/><path d="M97.1 64.8L97.1 89.4" stroke-width="0.45" stroke-opacity="0.8"/><path d="M95.7 64.8L95.7 89.4" stroke-width="0.45" stroke-opacity="0.8"/><path d="M94.3 64.8L94.3 89.4" stroke-width="0.45" stroke-opacity="0.8"/><path d="M92.9 64.8L92.9 89.4" stroke-width="0.45" stroke-opacity="0.8"/><path d="M91.5 64.8L91.5 89.4" stroke-width="0.45" stroke-opacity="0.8"/><path d="M90.1 64.8L90.1 89.4" stroke-width="0.45" stroke-opacity="0.8"/><path d="M88.7 64.8L88.7 89.4" stroke-width="0.45" stroke-opacity="0.8"/><path d="M87.3 64.8L87.3 89.4" stroke-width="0.45" stroke-opacity="0.8"/><path d="M85.9 64.8L85.9 89.4" stroke-width="0.45" stroke-opacity="0.8"/><path d="M84.5 64.8L84.5 89.4" stroke-width="0.45" stroke-opacity="0.8"/></g><path d="M87 72A9 7.2 0 0 0 105 72V75A9 7.2 0 0 1 87 75Z" stroke-width="1" stroke-opacity="0.9"/><path d="M87 72a9 7.2 0 1 0 18 0a9 7.2 0 1 0 -18 0Z" stroke-width="1.1" stroke-opacity="0.9"/><path d="M91 72a4.95 3.96 0 1 0 9.9 0a4.95 3.96 0 1 0 -9.9 0Z" stroke-width="0.5" stroke-opacity="0.6"/><path d="M141 76A9 7.2 0 0 0 159 76V79A9 7.2 0 0 1 141 79Z" fill="#fafafc" stroke="none"/><path d="M141 76a9 7.2 0 1 0 18 0a9 7.2 0 1 0 -18 0Z" fill="#fafafc" stroke="none"/><g clip-path="url(#c3)"><path d="M162.3 68.8L162.3 93.4" stroke-width="0.45" stroke-opacity="0.8"/><path d="M160.9 68.8L160.9 93.4" stroke-width="0.45" stroke-opacity="0.8"/><path d="M159.5 68.8L159.5 93.4" stroke-width="0.45" stroke-opacity="0.8"/><path d="M158.1 68.8L158.1 93.4" stroke-width="0.45" stroke-opacity="0.8"/><path d="M156.7 68.8L156.7 93.4" stroke-width="0.45" stroke-opacity="0.8"/><path d="M155.3 68.8L155.3 93.4" stroke-width="0.45" stroke-opacity="0.8"/><path d="M153.9 68.8L153.9 93.4" stroke-width="0.45" stroke-opacity="0.8"/><path d="M152.5 68.8L152.5 93.4" stroke-width="0.45" stroke-opacity="0.8"/><path d="M151.1 68.8L151.1 93.4" stroke-width="0.45" stroke-opacity="0.8"/><path d="M149.7 68.8L149.7 93.4" stroke-width="0.45" stroke-opacity="0.8"/><path d="M148.3 68.8L148.3 93.4" stroke-width="0.45" stroke-opacity="0.8"/><path d="M146.9 68.8L146.9 93.4" stroke-width="0.45" stroke-opacity="0.8"/><path d="M145.5 68.8L145.5 93.4" stroke-width="0.45" stroke-opacity="0.8"/><path d="M144.1 68.8L144.1 93.4" stroke-width="0.45" stroke-opacity="0.8"/><path d="M142.7 68.8L142.7 93.4" stroke-width="0.45" stroke-opacity="0.8"/><path d="M141.3 68.8L141.3 93.4" stroke-width="0.45" stroke-opacity="0.8"/><path d="M139.9 68.8L139.9 93.4" stroke-width="0.45" stroke-opacity="0.8"/><path d="M138.5 68.8L138.5 93.4" stroke-width="0.45" stroke-opacity="0.8"/></g><path d="M141 76A9 7.2 0 0 0 159 76V79A9 7.2 0 0 1 141 79Z" stroke-width="1" stroke-opacity="0.9"/><path d="M141 76a9 7.2 0 1 0 18 0a9 7.2 0 1 0 -18 0Z" stroke-width="1.1" stroke-opacity="0.9"/><path d="M145.1 76a4.95 3.96 0 1 0 9.9 0a4.95 3.96 0 1 0 -9.9 0Z" stroke-width="0.5" stroke-opacity="0.6"/><path d="M64 104A8 6.4 0 0 0 80 104V107A8 6.4 0 0 1 64 107Z" fill="#fafafc" stroke="none"/><path d="M64 104a8 6.4 0 1 0 16 0a8 6.4 0 1 0 -16 0Z" fill="#fafafc" stroke="none"/><g clip-path="url(#c4)"><path d="M83.3 97.4L83.3 120" stroke-width="0.45" stroke-opacity="0.8"/><path d="M81.9 97.4L81.9 120" stroke-width="0.45" stroke-opacity="0.8"/><path d="M80.5 97.4L80.5 120" stroke-width="0.45" stroke-opacity="0.8"/><path d="M79.1 97.4L79.1 120" stroke-width="0.45" stroke-opacity="0.8"/><path d="M77.7 97.4L77.7 120" stroke-width="0.45" stroke-opacity="0.8"/><path d="M76.3 97.4L76.3 120" stroke-width="0.45" stroke-opacity="0.8"/><path d="M74.9 97.4L74.9 120" stroke-width="0.45" stroke-opacity="0.8"/><path d="M73.5 97.4L73.5 120" stroke-width="0.45" stroke-opacity="0.8"/><path d="M72.1 97.4L72.1 120" stroke-width="0.45" stroke-opacity="0.8"/><path d="M70.7 97.4L70.7 120" stroke-width="0.45" stroke-opacity="0.8"/><path d="M69.3 97.4L69.3 120" stroke-width="0.45" stroke-opacity="0.8"/><path d="M67.9 97.4L67.9 120" stroke-width="0.45" stroke-opacity="0.8"/><path d="M66.5 97.4L66.5 120" stroke-width="0.45" stroke-opacity="0.8"/><path d="M65.1 97.4L65.1 120" stroke-width="0.45" stroke-opacity="0.8"/><path d="M63.7 97.4L63.7 120" stroke-width="0.45" stroke-opacity="0.8"/><path d="M62.3 97.4L62.3 120" stroke-width="0.45" stroke-opacity="0.8"/><path d="M60.9 97.4L60.9 120" stroke-width="0.45" stroke-opacity="0.8"/></g><path d="M64 104A8 6.4 0 0 0 80 104V107A8 6.4 0 0 1 64 107Z" stroke-width="1" stroke-opacity="0.9"/><path d="M64 104a8 6.4 0 1 0 16 0a8 6.4 0 1 0 -16 0Z" stroke-width="1.1" stroke-opacity="0.9"/><path d="M67.6 104a4.4 3.52 0 1 0 8.8 0a4.4 3.52 0 1 0 -8.8 0Z" stroke-width="0.5" stroke-opacity="0.6"/><path d="M166 118A8 6.4 0 0 0 182 118V121A8 6.4 0 0 1 166 121Z" fill="#fafafc" stroke="none"/><path d="M166 118a8 6.4 0 1 0 16 0a8 6.4 0 1 0 -16 0Z" fill="#fafafc" stroke="none"/><g clip-path="url(#c5)"><path d="M185.3 111.4L185.3 134" stroke-width="0.45" stroke-opacity="0.8"/><path d="M183.9 111.4L183.9 134" stroke-width="0.45" stroke-opacity="0.8"/><path d="M182.5 111.4L182.5 134" stroke-width="0.45" stroke-opacity="0.8"/><path d="M181.1 111.4L181.1 134" stroke-width="0.45" stroke-opacity="0.8"/><path d="M179.7 111.4L179.7 134" stroke-width="0.45" stroke-opacity="0.8"/><path d="M178.3 111.4L178.3 134" stroke-width="0.45" stroke-opacity="0.8"/><path d="M176.9 111.4L176.9 134" stroke-width="0.45" stroke-opacity="0.8"/><path d="M175.5 111.4L175.5 134" stroke-width="0.45" stroke-opacity="0.8"/><path d="M174.1 111.4L174.1 134" stroke-width="0.45" stroke-opacity="0.8"/><path d="M172.7 111.4L172.7 134" stroke-width="0.45" stroke-opacity="0.8"/><path d="M171.3 111.4L171.3 134" stroke-width="0.45" stroke-opacity="0.8"/><path d="M169.9 111.4L169.9 134" stroke-width="0.45" stroke-opacity="0.8"/><path d="M168.5 111.4L168.5 134" stroke-width="0.45" stroke-opacity="0.8"/><path d="M167.1 111.4L167.1 134" stroke-width="0.45" stroke-opacity="0.8"/><path d="M165.7 111.4L165.7 134" stroke-width="0.45" stroke-opacity="0.8"/><path d="M164.3 111.4L164.3 134" stroke-width="0.45" stroke-opacity="0.8"/><path d="M162.9 111.4L162.9 134" stroke-width="0.45" stroke-opacity="0.8"/></g><path d="M166 118A8 6.4 0 0 0 182 118V121A8 6.4 0 0 1 166 121Z" stroke-width="1" stroke-opacity="0.9"/><path d="M166 118a8 6.4 0 1 0 16 0a8 6.4 0 1 0 -16 0Z" stroke-width="1.1" stroke-opacity="0.9"/><path d="M169.6 118a4.4 3.52 0 1 0 8.8 0a4.4 3.52 0 1 0 -8.8 0Z" stroke-width="0.5" stroke-opacity="0.6"/><path d="M110 70A10 8 0 0 0 130 70V73A10 8 0 0 1 110 73Z" fill="#fafafc" stroke="none"/><path d="M110 70a10 8 0 1 0 20 0a10 8 0 1 0 -20 0Z" fill="#fafafc" stroke="none"/><g clip-path="url(#c6)"><path d="M133.4 62.1L133.4 88.9" stroke-width="0.45" stroke-opacity="0.8"/><path d="M132 62.1L132 88.9" stroke-width="0.45" stroke-opacity="0.8"/><path d="M130.6 62.1L130.6 88.9" stroke-width="0.45" stroke-opacity="0.8"/><path d="M129.2 62.1L129.2 88.9" stroke-width="0.45" stroke-opacity="0.8"/><path d="M127.8 62.1L127.8 88.9" stroke-width="0.45" stroke-opacity="0.8"/><path d="M126.4 62.1L126.4 88.9" stroke-width="0.45" stroke-opacity="0.8"/><path d="M125 62.1L125 88.9" stroke-width="0.45" stroke-opacity="0.8"/><path d="M123.6 62.1L123.6 88.9" stroke-width="0.45" stroke-opacity="0.8"/><path d="M122.2 62.1L122.2 88.9" stroke-width="0.45" stroke-opacity="0.8"/><path d="M120.8 62.1L120.8 88.9" stroke-width="0.45" stroke-opacity="0.8"/><path d="M119.4 62.1L119.4 88.9" stroke-width="0.45" stroke-opacity="0.8"/><path d="M118 62.1L118 88.9" stroke-width="0.45" stroke-opacity="0.8"/><path d="M116.6 62.1L116.6 88.9" stroke-width="0.45" stroke-opacity="0.8"/><path d="M115.2 62.1L115.2 88.9" stroke-width="0.45" stroke-opacity="0.8"/><path d="M113.8 62.1L113.8 88.9" stroke-width="0.45" stroke-opacity="0.8"/><path d="M112.4 62.1L112.4 88.9" stroke-width="0.45" stroke-opacity="0.8"/><path d="M111 62.1L111 88.9" stroke-width="0.45" stroke-opacity="0.8"/><path d="M109.6 62.1L109.6 88.9" stroke-width="0.45" stroke-opacity="0.8"/><path d="M108.2 62.1L108.2 88.9" stroke-width="0.45" stroke-opacity="0.8"/><path d="M106.8 62.1L106.8 88.9" stroke-width="0.45" stroke-opacity="0.8"/></g><path d="M110 70A10 8 0 0 0 130 70V73A10 8 0 0 1 110 73Z" stroke-width="1" stroke-opacity="0.9"/><path d="M110 70a10 8 0 1 0 20 0a10 8 0 1 0 -20 0Z" stroke-width="1.1" stroke-opacity="0.9"/><path d="M114.5 70a5.5 4.4 0 1 0 11 0a5.5 4.4 0 1 0 -11 0Z" stroke-width="0.5" stroke-opacity="0.6"/><path d="M125 98A7 5.6000000000000005 0 0 0 139 98V101A7 5.6000000000000005 0 0 1 125 101Z" fill="#fafafc" stroke="none"/><path d="M125 98a7 5.6000000000000005 0 1 0 14 0a7 5.6000000000000005 0 1 0 -14 0Z" fill="#fafafc" stroke="none"/><g clip-path="url(#c7)"><path d="M142.2 92.1L142.2 112.5" stroke-width="0.45" stroke-opacity="0.8"/><path d="M140.8 92.1L140.8 112.5" stroke-width="0.45" stroke-opacity="0.8"/><path d="M139.4 92.1L139.4 112.5" stroke-width="0.45" stroke-opacity="0.8"/><path d="M138 92.1L138 112.5" stroke-width="0.45" stroke-opacity="0.8"/><path d="M136.6 92.1L136.6 112.5" stroke-width="0.45" stroke-opacity="0.8"/><path d="M135.2 92.1L135.2 112.5" stroke-width="0.45" stroke-opacity="0.8"/><path d="M133.8 92.1L133.8 112.5" stroke-width="0.45" stroke-opacity="0.8"/><path d="M132.4 92.1L132.4 112.5" stroke-width="0.45" stroke-opacity="0.8"/><path d="M131 92.1L131 112.5" stroke-width="0.45" stroke-opacity="0.8"/><path d="M129.6 92.1L129.6 112.5" stroke-width="0.45" stroke-opacity="0.8"/><path d="M128.2 92.1L128.2 112.5" stroke-width="0.45" stroke-opacity="0.8"/><path d="M126.8 92.1L126.8 112.5" stroke-width="0.45" stroke-opacity="0.8"/><path d="M125.4 92.1L125.4 112.5" stroke-width="0.45" stroke-opacity="0.8"/><path d="M124 92.1L124 112.5" stroke-width="0.45" stroke-opacity="0.8"/><path d="M122.6 92.1L122.6 112.5" stroke-width="0.45" stroke-opacity="0.8"/></g><path d="M125 98A7 5.6000000000000005 0 0 0 139 98V101A7 5.6000000000000005 0 0 1 125 101Z" stroke-width="1" stroke-opacity="0.9"/><path d="M125 98a7 5.6000000000000005 0 1 0 14 0a7 5.6000000000000005 0 1 0 -14 0Z" stroke-width="1.1" stroke-opacity="0.9"/><path d="M128.2 98a3.8500000000000005 3.08 0 1 0 7.700000000000001 0a3.8500000000000005 3.08 0 1 0 -7.700000000000001 0Z" stroke-width="0.5" stroke-opacity="0.6"/><path d="M99 102A7 5.6000000000000005 0 0 0 113 102V105A7 5.6000000000000005 0 0 1 99 105Z" fill="#fafafc" stroke="none"/><path d="M99 102a7 5.6000000000000005 0 1 0 14 0a7 5.6000000000000005 0 1 0 -14 0Z" fill="#fafafc" stroke="none"/><g clip-path="url(#c8)"><path d="M116.2 96.1L116.2 116.5" stroke-width="0.45" stroke-opacity="0.8"/><path d="M114.8 96.1L114.8 116.5" stroke-width="0.45" stroke-opacity="0.8"/><path d="M113.4 96.1L113.4 116.5" stroke-width="0.45" stroke-opacity="0.8"/><path d="M112 96.1L112 116.5" stroke-width="0.45" stroke-opacity="0.8"/><path d="M110.6 96.1L110.6 116.5" stroke-width="0.45" stroke-opacity="0.8"/><path d="M109.2 96.1L109.2 116.5" stroke-width="0.45" stroke-opacity="0.8"/><path d="M107.8 96.1L107.8 116.5" stroke-width="0.45" stroke-opacity="0.8"/><path d="M106.4 96.1L106.4 116.5" stroke-width="0.45" stroke-opacity="0.8"/><path d="M105 96.1L105 116.5" stroke-width="0.45" stroke-opacity="0.8"/><path d="M103.6 96.1L103.6 116.5" stroke-width="0.45" stroke-opacity="0.8"/><path d="M102.2 96.1L102.2 116.5" stroke-width="0.45" stroke-opacity="0.8"/><path d="M100.8 96.1L100.8 116.5" stroke-width="0.45" stroke-opacity="0.8"/><path d="M99.4 96.1L99.4 116.5" stroke-width="0.45" stroke-opacity="0.8"/><path d="M98 96.1L98 116.5" stroke-width="0.45" stroke-opacity="0.8"/><path d="M96.6 96.1L96.6 116.5" stroke-width="0.45" stroke-opacity="0.8"/></g><path d="M99 102A7 5.6000000000000005 0 0 0 113 102V105A7 5.6000000000000005 0 0 1 99 105Z" stroke-width="1" stroke-opacity="0.9"/><path d="M99 102a7 5.6000000000000005 0 1 0 14 0a7 5.6000000000000005 0 1 0 -14 0Z" stroke-width="1.1" stroke-opacity="0.9"/><path d="M102.2 102a3.8500000000000005 3.08 0 1 0 7.700000000000001 0a3.8500000000000005 3.08 0 1 0 -7.700000000000001 0Z" stroke-width="0.5" stroke-opacity="0.6"/></g></svg>