<svg xmlns="http://www.w3.org/2000/svg" viewBox="0 0 240 228"><defs><clipPath id="c0"><path d="M24 206a98 12 0 1 0 196 0a98 12 0 1 0 -196 0Z"/></clipPath><clipPath id="c1"><path d="M70 108A26 9 0 0 0 122 108V112A26 9 0 0 1 70 112Z"/></clipPath><clipPath id="c2"><path d="M96 99A26 9 0 0 1 122 108A26 9 0 0 1 96 117A20.28 7.0200000000000005 0 0 0 96 99Z"/></clipPath><clipPath id="c3"><path d="M118 104A24 8 0 0 0 166 104V108A24 8 0 0 1 118 108Z"/></clipPath><clipPath id="c4"><path d="M142 96A24 8 0 0 1 166 104A24 8 0 0 1 142 112A18.72 6.24 0 0 0 142 96Z"/></clipPath><clipPath id="c5"><path d="M95 94A25 9 0 0 0 145 94V98A25 9 0 0 1 95 98Z"/></clipPath><clipPath id="c6"><path d="M120 85A25 9 0 0 1 145 94A25 9 0 0 1 120 103A19.5 7.0200000000000005 0 0 0 120 85Z"/></clipPath><clipPath id="c7"><path d="M52 116A20 7 0 0 0 92 116V120A20 7 0 0 1 52 120Z"/></clipPath><clipPath id="c8"><path d="M72 109A20 7 0 0 1 92 116A20 7 0 0 1 72 123A15.600000000000001 5.46 0 0 0 72 109Z"/></clipPath><clipPath id="c9"><path d="M145 114A21 7 0 0 0 187 114V118A21 7 0 0 1 145 118Z"/></clipPath><clipPath id="c10"><path d="M166 107A21 7 0 0 1 187 114A21 7 0 0 1 166 121A16.38 5.46 0 0 0 166 107Z"/></clipPath><clipPath id="c11"><path d="M108 78A20 7 0 0 0 148 78V82A20 7 0 0 1 108 82Z"/></clipPath><clipPath id="c12"><path d="M128 71A20 7 0 0 1 148 78A20 7 0 0 1 128 85A15.600000000000001 5.46 0 0 0 128 71Z"/></clipPath><clipPath id="c13"><path d="M152 118H204Q200 190 178 200H144Z"/></clipPath></defs><g fill="none" stroke="#111318" stroke-opacity=".78" stroke-linecap="round" stroke-linejoin="round"><g clip-path="url(#c0)"><path d="M163.7 69.8L258.2 247.7" stroke-width="0.45" stroke-opacity="0.55"/><path d="M160.8 71.3L255.4 249.2" stroke-width="0.45" stroke-opacity="0.55"/><path d="M158 72.8L252.6 250.7" stroke-width="0.45" stroke-opacity="0.55"/><path d="M155.2 74.3L249.8 252.2" stroke-width="0.45" stroke-opacity="0.55"/><path d="M152.3 75.8L246.9 253.7" stroke-width="0.45" stroke-opacity="0.55"/><path d="M149.5 77.3L244.1 255.2" stroke-width="0.45" stroke-opacity="0.55"/><path d="M146.7 78.8L241.3 256.7" stroke-width="0.45" stroke-opacity="0.55"/><path d="M143.9 80.3L238.5 258.2" stroke-width="0.45" stroke-opacity="0.55"/><path d="M141 81.8L235.6 259.7" stroke-width="0.45" stroke-opacity="0.55"/><path d="M138.2 83.3L232.8 261.2" stroke-width="0.45" stroke-opacity="0.55"/><path d="M135.4 84.8L230 262.7" stroke-width="0.45" stroke-opacity="0.55"/><path d="M132.6 86.3L227.2 264.2" stroke-width="0.45" stroke-opacity="0.55"/><path d="M129.7 87.8L224.3 265.7" stroke-width="0.45" stroke-opacity="0.55"/><path d="M126.9 89.3L221.5 267.2" stroke-width="0.45" stroke-opacity="0.55"/><path d="M124.1 90.8L218.7 268.7" stroke-width="0.45" stroke-opacity="0.55"/><path d="M121.3 92.3L215.9 270.2" stroke-width="0.45" stroke-opacity="0.55"/><path d="M118.4 93.8L213 271.7" stroke-width="0.45" stroke-opacity="0.55"/><path d="M115.6 95.3L210.2 273.2" stroke-width="0.45" stroke-opacity="0.55"/><path d="M112.8 96.8L207.4 274.7" stroke-width="0.45" stroke-opacity="0.55"/><path d="M110 98.3L204.5 276.2" stroke-width="0.45" stroke-opacity="0.55"/><path d="M107.1 99.8L201.7 277.7" stroke-width="0.45" stroke-opacity="0.55"/><path d="M104.3 101.3L198.9 279.2" stroke-width="0.45" stroke-opacity="0.55"/><path d="M101.5 102.8L196.1 280.7" stroke-width="0.45" stroke-opacity="0.55"/><path d="M98.7 104.3L193.2 282.2" stroke-width="0.45" stroke-opacity="0.55"/><path d="M95.8 105.8L190.4 283.7" stroke-width="0.45" stroke-opacity="0.55"/><path d="M93 107.3L187.6 285.2" stroke-width="0.45" stroke-opacity="0.55"/><path d="M90.2 108.8L184.8 286.7" stroke-width="0.45" stroke-opacity="0.55"/><path d="M87.4 110.3L181.9 288.2" stroke-width="0.45" stroke-opacity="0.55"/><path d="M84.5 111.8L179.1 289.7" stroke-width="0.45" stroke-opacity="0.55"/><path d="M81.7 113.3L176.3 291.2" stroke-width="0.45" stroke-opacity="0.55"/><path d="M78.9 114.8L173.5 292.7" stroke-width="0.45" stroke-opacity="0.55"/><path d="M76.1 116.3L170.6 294.2" stroke-width="0.45" stroke-opacity="0.55"/><path d="M73.2 117.8L167.8 295.7" stroke-width="0.45" stroke-opacity="0.55"/><path d="M70.4 119.3L165 297.2" stroke-width="0.45" stroke-opacity="0.55"/><path d="M67.6 120.8L162.2 298.7" stroke-width="0.45" stroke-opacity="0.55"/><path d="M64.8 122.3L159.3 300.2" stroke-width="0.45" stroke-opacity="0.55"/><path d="M61.9 123.9L156.5 301.7" stroke-width="0.45" stroke-opacity="0.55"/><path d="M59.1 125.4L153.7 303.2" stroke-width="0.45" stroke-opacity="0.55"/><path d="M56.3 126.9L150.9 304.7" stroke-width="0.45" stroke-opacity="0.55"/><path d="M53.5 128.4L148 306.2" stroke-width="0.45" stroke-opacity="0.55"/><path d="M50.6 129.9L145.2 307.7" stroke-width="0.45" stroke-opacity="0.55"/><path d="M47.8 131.4L142.4 309.2" stroke-width="0.45" stroke-opacity="0.55"/><path d="M45 132.9L139.6 310.7" stroke-width="0.45" stroke-opacity="0.55"/><path d="M42.2 134.4L136.7 312.2" stroke-width="0.45" stroke-opacity="0.55"/><path d="M39.3 135.9L133.9 313.8" stroke-width="0.45" stroke-opacity="0.55"/><path d="M36.5 137.4L131.1 315.3" stroke-width="0.45" stroke-opacity="0.55"/><path d="M33.7 138.9L128.3 316.8" stroke-width="0.45" stroke-opacity="0.55"/><path d="M30.9 140.4L125.4 318.3" stroke-width="0.45" stroke-opacity="0.55"/><path d="M28 141.9L122.6 319.8" stroke-width="0.45" stroke-opacity="0.55"/><path d="M25.2 143.4L119.8 321.3" stroke-width="0.45" stroke-opacity="0.55"/><path d="M22.4 144.9L117 322.8" stroke-width="0.45" stroke-opacity="0.55"/><path d="M19.6 146.4L114.1 324.3" stroke-width="0.45" stroke-opacity="0.55"/><path d="M16.7 147.9L111.3 325.8" stroke-width="0.45" stroke-opacity="0.55"/><path d="M13.9 149.4L108.5 327.3" stroke-width="0.45" stroke-opacity="0.55"/><path d="M11.1 150.9L105.7 328.8" stroke-width="0.45" stroke-opacity="0.55"/><path d="M8.3 152.4L102.8 330.3" stroke-width="0.45" stroke-opacity="0.55"/><path d="M5.4 153.9L100 331.8" stroke-width="0.45" stroke-opacity="0.55"/><path d="M2.6 155.4L97.2 333.3" stroke-width="0.45" stroke-opacity="0.55"/><path d="M-0.2 156.9L94.4 334.8" stroke-width="0.45" stroke-opacity="0.55"/><path d="M-3.1 158.4L91.5 336.3" stroke-width="0.45" stroke-opacity="0.55"/><path d="M-5.9 159.9L88.7 337.8" stroke-width="0.45" stroke-opacity="0.55"/><path d="M-8.7 161.4L85.9 339.3" stroke-width="0.45" stroke-opacity="0.55"/><path d="M-11.5 162.9L83.1 340.8" stroke-width="0.45" stroke-opacity="0.55"/></g><g clip-path="url(#c1)"><path d="M124.8 85.7L124.8 143.3" stroke-width="0.45" stroke-opacity="0.8"/><path d="M123.4 85.7L123.4 143.3" stroke-width="0.45" stroke-opacity="0.8"/><path d="M122 85.7L122 143.3" stroke-width="0.45" stroke-opacity="0.8"/><path d="M120.6 85.7L120.6 143.3" stroke-width="0.45" stroke-opacity="0.8"/><path d="M119.2 85.7L119.2 143.3" stroke-width="0.45" stroke-opacity="0.8"/><path d="M117.8 85.7L117.8 143.3" stroke-width="0.45" stroke-opacity="0.8"/><path d="M116.4 85.7L116.4 143.3" stroke-width="0.45" stroke-opacity="0.8"/><path d="M115 85.7L115 143.3" stroke-width="0.45" stroke-opacity="0.8"/><path d="M113.6 85.7L113.6 143.3" stroke-width="0.45" stroke-opacity="0.8"/><path d="M112.2 85.7L112.2 143.3" stroke-width="0.45" stroke-opacity="0.8"/><path d="M110.8 85.7L110.8 143.3" stroke-width="0.45" stroke-opacity="0.8"/><path d="M109.4 85.7L109.4 143.3" stroke-width="0.45" stroke-opacity="0.8"/><path d="M108 85.7L108 143.3" stroke-width="0.45" stroke-opacity="0.8"/><path d="M106.6 85.7L106.6 143.3" stroke-width="0.45" stroke-opacity="0.8"/><path d="M105.2 85.7L105.2 143.3" stroke-width="0.45" stroke-opacity="0.8"/><path d="M103.8 85.7L103.8 143.3" stroke-width="0.45" stroke-opacity="0.8"/><path d="M102.4 85.7L102.4 143.3" stroke-width="0.45" stroke-opacity="0.8"/><path d="M101 85.7L101 143.3" stroke-width="0.45" stroke-opacity="0.8"/><path d="M99.6 85.7L99.6 143.3" stroke-width="0.45" stroke-opacity="0.8"/><path d="M98.2 85.7L98.2 143.3" stroke-width="0.45" stroke-opacity="0.8"/><path d="M96.8 85.7L96.8 143.3" stroke-width="0.45" stroke-opacity="0.8"/><path d="M95.4 85.7L95.4 143.3" stroke-width="0.45" stroke-opacity="0.8"/><path d="M94 85.7L94 143.3" stroke-width="0.45" stroke-opacity="0.8"/><path d="M92.6 85.7L92.6 143.3" stroke-width="0.45" stroke-opacity="0.8"/><path d="M91.2 85.7L91.2 143.3" stroke-width="0.45" stroke-opacity="0.8"/><path d="M89.8 85.7L89.8 143.3" stroke-width="0.45" stroke-opacity="0.8"/><path d="M88.4 85.7L88.4 143.3" stroke-width="0.45" stroke-opacity="0.8"/><path d="M87 85.7L87 143.3" stroke-width="0.45" stroke-opacity="0.8"/><path d="M85.6 85.7L85.6 143.3" stroke-width="0.45" stroke-opacity="0.8"/><path d="M84.2 85.7L84.2 143.3" stroke-width="0.45" stroke-opacity="0.8"/><path d="M82.8 85.7L82.8 143.3" stroke-width="0.45" stroke-opacity="0.8"/><path d="M81.4 85.7L81.4 143.3" stroke-width="0.45" stroke-opacity="0.8"/><path d="M80 85.7L80 143.3" stroke-width="0.45" stroke-opacity="0.8"/><path d="M78.6 85.7L78.6 143.3" stroke-width="0.45" stroke-opacity="0.8"/><path d="M77.2 85.7L77.2 143.3" stroke-width="0.45" stroke-opacity="0.8"/><path d="M75.8 85.7L75.8 143.3" stroke-width="0.45" stroke-opacity="0.8"/><path d="M74.4 85.7L74.4 143.3" stroke-width="0.45" stroke-opacity="0.8"/><path d="M73 85.7L73 143.3" stroke-width="0.45" stroke-opacity="0.8"/><path d="M71.6 85.7L71.6 143.3" stroke-width="0.45" stroke-opacity="0.8"/><path d="M70.2 85.7L70.2 143.3" stroke-width="0.45" stroke-opacity="0.8"/><path d="M68.8 85.7L68.8 143.3" stroke-width="0.45" stroke-opacity="0.8"/><path d="M67.4 85.7L67.4 143.3" stroke-width="0.45" stroke-opacity="0.8"/></g><path d="M70 108A26 9 0 0 0 122 108V112A26 9 0 0 1 70 112Z" stroke-width="1" stroke-opacity="0.9"/><path d="M70 108a26 9 0 1 0 52 0a26 9 0 1 0 -52 0Z" stroke-width="1.1" stroke-opacity="0.9"/><path d="M75.7 108a20.28 7.0200000000000005 0 1 0 40.56 0a20.28 7.0200000000000005 0 1 0 -40.56 0Z" stroke-width="0.5" stroke-opacity="0.6"/><g clip-path="url(#c2)"><path d="M102.5 83.7L133.3 101.5" stroke-width="0.4" stroke-opacity="0.55"/><path d="M101.4 85.6L132.2 103.4" stroke-width="0.4" stroke-opacity="0.55"/><path d="M100.3 87.5L131.1 105.3" stroke-width="0.4" stroke-opacity="0.55"/><path d="M99.2 89.4L130 107.2" stroke-width="0.4" stroke-opacity="0.55"/><path d="M98.1 91.3L128.9 109.1" stroke-width="0.4" stroke-opacity="0.55"/><path d="M97 93.2L127.8 111" stroke-width="0.4" stroke-opacity="0.55"/><path d="M95.9 95.1L126.7 112.9" stroke-width="0.4" stroke-opacity="0.55"/><path d="M94.8 97L125.6 114.8" stroke-width="0.4" stroke-opacity="0.55"/><path d="M93.7 98.9L124.5 116.7" stroke-width="0.4" stroke-opacity="0.55"/><path d="M92.6 100.8L123.4 118.6" stroke-width="0.4" stroke-opacity="0.55"/><path d="M91.5 102.7L122.3 120.5" stroke-width="0.4" stroke-opacity="0.55"/><path d="M90.4 104.6L121.2 122.4" stroke-width="0.4" stroke-opacity="0.55"/><path d="M89.3 106.5L120.1 124.3" stroke-width="0.4" stroke-opacity="0.55"/><path d="M88.2 108.4L119 126.2" stroke-width="0.4" stroke-opacity="0.55"/><path d="M87.1 110.3L117.9 128.2" stroke-width="0.4" stroke-opacity="0.55"/><path d="M86 112.2L116.8 130.1" stroke-width="0.4" stroke-opacity="0.55"/><path d="M84.9 114.2L115.7 132" stroke-width="0.4" stroke-opacity="0.55"/></g><path d="M96 104.2L98.8 106.7L106.4 106.8L100.5 108.5L102.4 111.1L96 109.6L89.6 111.1L91.5 108.5L85.6 106.8L93.2 106.7Z" stroke-width="0.7" stroke-opacity="0.8"/><g clip-path="url(#c3)"><path d="M168.7 83.3L168.7 136.7" stroke-width="0.45" stroke-opacity="0.8"/><path d="M167.3 83.3L167.3 136.7" stroke-width="0.45" stroke-opacity="0.8"/><path d="M165.9 83.3L165.9 136.7" stroke-width="0.45" stroke-opacity="0.8"/><path d="M164.5 83.3L164.5 136.7" stroke-width="0.45" stroke-opacity="0.8"/><path d="M163.1 83.3L163.1 136.7" stroke-width="0.45" stroke-opacity="0.8"/><path d="M161.7 83.3L161.7 136.7" stroke-width="0.45" stroke-opacity="0.8"/><path d="M160.3 83.3L160.3 136.7" stroke-width="0.45" stroke-opacity="0.8"/><path d="M158.9 83.3L158.9 136.7" stroke-width="0.45" stroke-opacity="0.8"/><path d="M157.5 83.3L157.5 136.7" stroke-width="0.45" stroke-opacity="0.8"/><path d="M156.1 83.3L156.1 136.7" stroke-width="0.45" stroke-opacity="0.8"/><path d="M154.7 83.3L154.7 136.7" stroke-width="0.45" stroke-opacity="0.8"/><path d="M153.3 83.3L153.3 136.7" stroke-width="0.45" stroke-opacity="0.8"/><path d="M151.9 83.3L151.9 136.7" stroke-width="0.45" stroke-opacity="0.8"/><path d="M150.5 83.3L150.5 136.7" stroke-width="0.45" stroke-opacity="0.8"/><path d="M149.1 83.3L149.1 136.7" stroke-width="0.45" stroke-opacity="0.8"/><path d="M147.7 83.3L147.7 136.7" stroke-width="0.45" stroke-opacity="0.8"/><path d="M146.3 83.3L146.3 136.7" stroke-width="0.45" stroke-opacity="0.8"/><path d="M144.9 83.3L144.9 136.7" stroke-width="0.45" stroke-opacity="0.8"/><path d="M143.5 83.3L143.5 136.7" stroke-width="0.45" stroke-opacity="0.8"/><path d="M142.1 83.3L142.1 136.7" stroke-width="0.45" stroke-opacity="0.8"/><path d="M140.7 83.3L140.7 136.7" stroke-width="0.45" stroke-opacity="0.8"/><path d="M139.3 83.3L139.3 136.7" stroke-width="0.45" stroke-opacity="0.8"/><path d="M137.9 83.3L137.9 136.7" stroke-width="0.45" stroke-opacity="0.8"/><path d="M136.5 83.3L136.5 136.7" stroke-width="0.45" stroke-opacity="0.8"/><path d="M135.1 83.3L135.1 136.7" stroke-width="0.45" stroke-opacity="0.8"/><path d="M133.7 83.3L133.7 136.7" stroke-width="0.45" stroke-opacity="0.8"/><path d="M132.3 83.3L132.3 136.7" stroke-width="0.45" stroke-opacity="0.8"/><path d="M130.9 83.3L130.9 136.7" stroke-width="0.45" stroke-opacity="0.8"/><path d="M129.5 83.3L129.5 136.7" stroke-width="0.45" stroke-opacity="0.8"/><path d="M128.1 83.3L128.1 136.7" stroke-width="0.45" stroke-opacity="0.8"/><path d="M126.7 83.3L126.7 136.7" stroke-width="0.45" stroke-opacity="0.8"/><path d="M125.3 83.3L125.3 136.7" stroke-width="0.45" stroke-opacity="0.8"/><path d="M123.9 83.3L123.9 136.7" stroke-width="0.45" stroke-opacity="0.8"/><path d="M122.5 83.3L122.5 136.7" stroke-width="0.45" stroke-opacity="0.8"/><path d="M121.1 83.3L121.1 136.7" stroke-width="0.45" stroke-opacity="0.8"/><path d="M119.7 83.3L119.7 136.7" stroke-width="0.45" stroke-opacity="0.8"/><path d="M118.3 83.3L118.3 136.7" stroke-width="0.45" stroke-opacity="0.8"/><path d="M116.9 83.3L116.9 136.7" stroke-width="0.45" stroke-opacity="0.8"/><path d="M115.5 83.3L115.5 136.7" stroke-width="0.45" stroke-opacity="0.8"/></g><path d="M118 104A24 8 0 0 0 166 104V108A24 8 0 0 1 118 108Z" stroke-width="1" stroke-opacity="0.9"/><path d="M118 104a24 8 0 1 0 48 0a24 8 0 1 0 -48 0Z" stroke-width="1.1" stroke-opacity="0.9"/><path d="M123.3 104a18.72 6.24 0 1 0 37.44 0a18.72 6.24 0 1 0 -37.44 0Z" stroke-width="0.5" stroke-opacity="0.6"/><g clip-path="url(#c4)"><path d="M148 81.6L176.4 98" stroke-width="0.4" stroke-opacity="0.55"/><path d="M146.9 83.5L175.3 99.9" stroke-width="0.4" stroke-opacity="0.55"/><path d="M145.8 85.4L174.2 101.8" stroke-width="0.4" stroke-opacity="0.55"/><path d="M144.7 87.3L173.1 103.7" stroke-width="0.4" stroke-opacity="0.55"/><path d="M143.6 89.2L172 105.6" stroke-width="0.4" stroke-opacity="0.55"/><path d="M142.5 91.1L170.9 107.5" stroke-width="0.4" stroke-opacity="0.55"/><path d="M141.4 93L169.8 109.4" stroke-width="0.4" stroke-opacity="0.55"/><path d="M140.3 94.9L168.7 111.3" stroke-width="0.4" stroke-opacity="0.55"/><path d="M139.2 96.8L167.6 113.2" stroke-width="0.4" stroke-opacity="0.55"/><path d="M138.1 98.7L166.5 115.1" stroke-width="0.4" stroke-opacity="0.55"/><path d="M137 100.6L165.4 117" stroke-width="0.4" stroke-opacity="0.55"/><path d="M135.9 102.5L164.3 118.9" stroke-width="0.4" stroke-opacity="0.55"/><path d="M134.8 104.4L163.2 120.9" stroke-width="0.4" stroke-opacity="0.55"/><path d="M133.7 106.3L162.1 122.8" stroke-width="0.4" stroke-opacity="0.55"/><path d="M132.6 108.2L161 124.7" stroke-width="0.4" stroke-opacity="0.55"/></g><path d="M134.8 104a7.199999999999999 2.4 0 1 0 14.399999999999999 0a7.199999999999999 2.4 0 1 0 -14.399999999999999 0Z" stroke-width="0.8" stroke-opacity="0.8"/><g clip-path="url(#c5)"><path d="M147.8 72.7L147.8 128.3" stroke-width="0.45" stroke-opacity="0.8"/><path d="M146.4 72.7L146.4 128.3" stroke-width="0.45" stroke-opacity="0.8"/><path d="M145 72.7L145 128.3" stroke-width="0.45" stroke-opacity="0.8"/><path d="M143.6 72.7L143.6 128.3" stroke-width="0.45" stroke-opacity="0.8"/><path d="M142.2 72.7L142.2 128.3" stroke-width="0.45" stroke-opacity="0.8"/><path d="M140.8 72.7L140.8 128.3" stroke-width="0.45" stroke-opacity="0.8"/><path d="M139.4 72.7L139.4 128.3" stroke-width="0.45" stroke-opacity="0.8"/><path d="M138 72.7L138 128.3" stroke-width="0.45" stroke-opacity="0.8"/><path d="M136.6 72.7L136.6 128.3" stroke-width="0.45" stroke-opacity="0.8"/><path d="M135.2 72.7L135.2 128.3" stroke-width="0.45" stroke-opacity="0.8"/><path d="M133.8 72.7L133.8 128.3" stroke-width="0.45" stroke-opacity="0.8"/><path d="M132.4 72.7L132.4 128.3" stroke-width="0.45" stroke-opacity="0.8"/><path d="M131 72.7L131 128.3" stroke-width="0.45" stroke-opacity="0.8"/><path d="M129.6 72.7L129.6 128.3" stroke-width="0.45" stroke-opacity="0.8"/><path d="M128.2 72.7L128.2 128.3" stroke-width="0.45" stroke-opacity="0.8"/><path d="M126.8 72.7L126.8 128.3" stroke-width="0.45" stroke-opacity="0.8"/><path d="M125.4 72.7L125.4 128.3" stroke-width="0.45" stroke-opacity="0.8"/><path d="M124 72.7L124 128.3" stroke-width="0.45" stroke-opacity="0.8"/><path d="M122.6 72.7L122.6 128.3" stroke-width="0.45" stroke-opacity="0.8"/><path d="M121.2 72.7L121.2 128.3" stroke-width="0.45" stroke-opacity="0.8"/><path d="M119.8 72.7L119.8 128.3" stroke-width="0.45" stroke-opacity="0.8"/><path d="M118.4 72.7L118.4 128.3" stroke-width="0.45" stroke-opacity="0.8"/><path d="M117 72.7L117 128.3" stroke-width="0.45" stroke-opacity="0.8"/><path d="M115.6 72.7L115.6 128.3" stroke-width="0.45" stroke-opacity="0.8"/><path d="M114.2 72.7L114.2 128.3" stroke-width="0.45" stroke-opacity="0.8"/><path d="M112.8 72.7L112.8 128.3" stroke-width="0.45" stroke-opacity="0.8"/><path d="M111.4 72.7L111.4 128.3" stroke-width="0.45" stroke-opacity="0.8"/><path d="M110 72.7L110 128.3" stroke-width="0.45" stroke-opacity="0.8"/><path d="M108.6 72.7L108.6 128.3" stroke-width="0.45" stroke-opacity="0.8"/><path d="M107.2 72.7L107.2 128.3" stroke-width="0.45" stroke-opacity="0.8"/><path d="M105.8 72.7L105.8 128.3" stroke-width="0.45" stroke-opacity="0.8"/><path d="M104.4 72.7L104.4 128.3" stroke-width="0.45" stroke-opacity="0.8"/><path d="M103 72.7L103 128.3" stroke-width="0.45" stroke-opacity="0.8"/><path d="M101.6 72.7L101.6 128.3" stroke-width="0.45" stroke-opacity="0.8"/><path d="M100.2 72.7L100.2 128.3" stroke-width="0.45" stroke-opacity="0.8"/><path d="M98.8 72.7L98.8 128.3" stroke-width="0.45" stroke-opacity="0.8"/><path d="M97.4 72.7L97.4 128.3" stroke-width="0.45" stroke-opacity="0.8"/><path d="M96 72.7L96 128.3" stroke-width="0.45" stroke-opacity="0.8"/><path d="M94.6 72.7L94.6 128.3" stroke-width="0.45" stroke-opacity="0.8"/><path d="M93.2 72.7L93.2 128.3" stroke-width="0.45" stroke-opacity="0.8"/></g><path d="M95 94A25 9 0 0 0 145 94V98A25 9 0 0 1 95 98Z" stroke-width="1" stroke-opacity="0.9"/><path d="M95 94a25 9 0 1 0 50 0a25 9 0 1 0 -50 0Z" stroke-width="1.1" stroke-opacity="0.9"/><path d="M100.5 94a19.5 7.0200000000000005 0 1 0 39 0a19.5 7.0200000000000005 0 1 0 -39 0Z" stroke-width="0.5" stroke-opacity="0.6"/><g clip-path="url(#c6)"><path d="M126.1 70.2L156.3 87.6" stroke-width="0.4" stroke-opacity="0.55"/><path d="M125 72.1L155.2 89.5" stroke-width="0.4" stroke-opacity="0.55"/><path d="M123.9 74L154.1 91.4" stroke-width="0.4" stroke-opacity="0.55"/><path d="M122.8 75.9L153 93.3" stroke-width="0.4" stroke-opacity="0.55"/><path d="M121.7 77.8L151.9 95.3" stroke-width="0.4" stroke-opacity="0.55"/><path d="M120.6 79.8L150.8 97.2" stroke-width="0.4" stroke-opacity="0.55"/><path d="M119.5 81.7L149.7 99.1" stroke-width="0.4" stroke-opacity="0.55"/><path d="M118.4 83.6L148.6 101" stroke-width="0.4" stroke-opacity="0.55"/><path d="M117.3 85.5L147.5 102.9" stroke-width="0.4" stroke-opacity="0.55"/><path d="M116.2 87.4L146.4 104.8" stroke-width="0.4" stroke-opacity="0.55"/><path d="M115.1 89.3L145.3 106.7" stroke-width="0.4" stroke-opacity="0.55"/><path d="M114 91.2L144.2 108.6" stroke-width="0.4" stroke-opacity="0.55"/><path d="M112.9 93.1L143.1 110.5" stroke-width="0.4" stroke-opacity="0.55"/><path d="M111.8 95L142 112.4" stroke-width="0.4" stroke-opacity="0.55"/><path d="M110.7 96.9L140.9 114.3" stroke-width="0.4" stroke-opacity="0.55"/><path d="M109.6 98.8L139.8 116.2" stroke-width="0.4" stroke-opacity="0.55"/></g><path d="M111.3 94H128.8M120 90.4V97.6" stroke-width="0.8" stroke-opacity="0.8"/><g clip-path="url(#c7)"><path d="M94.7 98.8L94.7 144.2" stroke-width="0.45" stroke-opacity="0.8"/><path d="M93.3 98.8L93.3 144.2" stroke-width="0.45" stroke-opacity="0.8"/><path d="M91.9 98.8L91.9 144.2" stroke-width="0.45" stroke-opacity="0.8"/><path d="M90.5 98.8L90.5 144.2" stroke-width="0.45" stroke-opacity="0.8"/><path d="M89.1 98.8L89.1 144.2" stroke-width="0.45" stroke-opacity="0.8"/><path d="M87.7 98.8L87.7 144.2" stroke-width="0.45" stroke-opacity="0.8"/><path d="M86.3 98.8L86.3 144.2" stroke-width="0.45" stroke-opacity="0.8"/><path d="M84.9 98.8L84.9 144.2" stroke-width="0.45" stroke-opacity="0.8"/><path d="M83.5 98.8L83.5 144.2" stroke-width="0.45" stroke-opacity="0.8"/><path d="M82.1 98.8L82.1 144.2" stroke-width="0.45" stroke-opacity="0.8"/><path d="M80.7 98.8L80.7 144.2" stroke-width="0.45" stroke-opacity="0.8"/><path d="M79.3 98.8L79.3 144.2" stroke-width="0.45" stroke-opacity="0.8"/><path d="M77.9 98.8L77.9 144.2" stroke-width="0.45" stroke-opacity="0.8"/><path d="M76.5 98.8L76.5 144.2" stroke-width="0.45" stroke-opacity="0.8"/><path d="M75.1 98.8L75.1 144.2" stroke-width="0.45" stroke-opacity="0.8"/><path d="M73.7 98.8L73.7 144.2" stroke-width="0.45" stroke-opacity="0.8"/><path d="M72.3 98.8L72.3 144.2" stroke-width="0.45" stroke-opacity="0.8"/><path d="M70.9 98.8L70.9 144.2" stroke-width="0.45" stroke-opacity="0.8"/><path d="M69.5 98.8L69.5 144.2" stroke-width="0.45" stroke-opacity="0.8"/><path d="M68.1 98.8L68.1 144.2" stroke-width="0.45" stroke-opacity="0.8"/><path d="M66.7 98.8L66.7 144.2" stroke-width="0.45" stroke-opacity="0.8"/><path d="M65.3 98.8L65.3 144.2" stroke-width="0.45" stroke-opacity="0.8"/><path d="M63.9 98.8L63.9 144.2" stroke-width="0.45" stroke-opacity="0.8"/><path d="M62.5 98.8L62.5 144.2" stroke-width="0.45" stroke-opacity="0.8"/><path d="M61.1 98.8L61.1 144.2" stroke-width="0.45" stroke-opacity="0.8"/><path d="M59.7 98.8L59.7 144.2" stroke-width="0.45" stroke-opacity="0.8"/><path d="M58.3 98.8L58.3 144.2" stroke-width="0.45" stroke-opacity="0.8"/><path d="M56.9 98.8L56.9 144.2" stroke-width="0.45" stroke-opacity="0.8"/><path d="M55.5 98.8L55.5 144.2" stroke-width="0.45" stroke-opacity="0.8"/><path d="M54.1 98.8L54.1 144.2" stroke-width="0.45" stroke-opacity="0.8"/><path d="M52.7 98.8L52.7 144.2" stroke-width="0.45" stroke-opacity="0.8"/><path d="M51.3 98.8L51.3 144.2" stroke-width="0.45" stroke-opacity="0.8"/><path d="M49.9 98.8L49.9 144.2" stroke-width="0.45" stroke-opacity="0.8"/></g><path d="M52 116A20 7 0 0 0 92 116V120A20 7 0 0 1 52 120Z" stroke-width="1" stroke-opacity="0.9"/><path d="M52 116a20 7 0 1 0 40 0a20 7 0 1 0 -40 0Z" stroke-width="1.1" stroke-opacity="0.9"/><path d="M56.4 116a15.600000000000001 5.46 0 1 0 31.200000000000003 0a15.600000000000001 5.46 0 1 0 -31.200000000000003 0Z" stroke-width="0.5" stroke-opacity="0.6"/><g clip-path="url(#c8)"><path d="M76.8 96.6L101.4 110.8" stroke-width="0.4" stroke-opacity="0.55"/><path d="M75.7 98.5L100.3 112.7" stroke-width="0.4" stroke-opacity="0.55"/><path d="M74.6 100.4L99.2 114.6" stroke-width="0.4" stroke-opacity="0.55"/><path d="M73.5 102.3L98.1 116.5" stroke-width="0.4" stroke-opacity="0.55"/><path d="M72.4 104.2L97 118.4" stroke-width="0.4" stroke-opacity="0.55"/><path d="M71.3 106.1L95.9 120.3" stroke-width="0.4" stroke-opacity="0.55"/><path d="M70.2 108L94.8 122.2" stroke-width="0.4" stroke-opacity="0.55"/><path d="M69.1 109.9L93.7 124.1" stroke-width="0.4" stroke-opacity="0.55"/><path d="M68 111.8L92.6 126" stroke-width="0.4" stroke-opacity="0.55"/><path d="M66.9 113.7L91.5 127.9" stroke-width="0.4" stroke-opacity="0.55"/><path d="M65.8 115.6L90.4 129.9" stroke-width="0.4" stroke-opacity="0.55"/><path d="M64.7 117.6L89.3 131.8" stroke-width="0.4" stroke-opacity="0.55"/><path d="M63.6 119.5L88.2 133.7" stroke-width="0.4" stroke-opacity="0.55"/></g><path d="M66 116a6 2.1 0 1 0 12 0a6 2.1 0 1 0 -12 0Z" stroke-width="0.8" stroke-opacity="0.8"/><g clip-path="url(#c9)"><path d="M189.7 95.8L189.7 143.2" stroke-width="0.45" stroke-opacity="0.8"/><path d="M188.3 95.8L188.3 143.2" stroke-width="0.45" stroke-opacity="0.8"/><path d="M186.9 95.8L186.9 143.2" stroke-width="0.45" stroke-opacity="0.8"/><path d="M185.5 95.8L185.5 143.2" stroke-width="0.45" stroke-opacity="0.8"/><path d="M184.1 95.8L184.1 143.2" stroke-width="0.45" stroke-opacity="0.8"/><path d="M182.7 95.8L182.7 143.2" stroke-width="0.45" stroke-opacity="0.8"/><path d="M181.3 95.8L181.3 143.2" stroke-width="0.45" stroke-opacity="0.8"/><path d="M179.9 95.8L179.9 143.2" stroke-width="0.45" stroke-opacity="0.8"/><path d="M178.5 95.8L178.5 143.2" stroke-width="0.45" stroke-opacity="0.8"/><path d="M177.1 95.8L177.1 143.2" stroke-width="0.45" stroke-opacity="0.8"/><path d="M175.7 95.8L175.7 143.2" stroke-width="0.45" stroke-opacity="0.8"/><path d="M174.3 95.8L174.3 143.2" stroke-width="0.45" stroke-opacity="0.8"/><path d="M172.9 95.8L172.9 143.2" stroke-width="0.45" stroke-opacity="0.8"/><path d="M171.5 95.8L171.5 143.2" stroke-width="0.45" stroke-opacity="0.8"/><path d="M170.1 95.8L170.1 143.2" stroke-width="0.45" stroke-opacity="0.8"/><path d="M168.7 95.8L168.7 143.2" stroke-width="0.45" stroke-opacity="0.8"/><path d="M167.3 95.8L167.3 143.2" stroke-width="0.45" stroke-opacity="0.8"/><path d="M165.9 95.8L165.9 143.2" stroke-width="0.45" stroke-opacity="0.8"/><path d="M164.5 95.8L164.5 143.2" stroke-width="0.45" stroke-opacity="0.8"/><path d="M163.1 95.8L163.1 143.2" stroke-width="0.45" stroke-opacity="0.8"/><path d="M161.7 95.8L161.7 143.2" stroke-width="0.45" stroke-opacity="0.8"/><path d="M160.3 95.8L160.3 143.2" stroke-width="0.45" stroke-opacity="0.8"/><path d="M158.9 95.8L158.9 143.2" stroke-width="0.45" stroke-opacity="0.8"/><path d="M157.5 95.8L157.5 143.2" stroke-width="0.45" stroke-opacity="0.8"/><path d="M156.1 95.8L156.1 143.2" stroke-width="0.45" stroke-opacity="0.8"/><path d="M154.7 95.8L154.7 143.2" stroke-width="0.45" stroke-opacity="0.8"/><path d="M153.3 95.8L153.3 143.2" stroke-width="0.45" stroke-opacity="0.8"/><path d="M151.9 95.8L151.9 143.2" stroke-width="0.45" stroke-opacity="0.8"/><path d="M150.5 95.8L150.5 143.2" stroke-width="0.45" stroke-opacity="0.8"/><path d="M149.1 95.8L149.1 143.2" stroke-width="0.45" stroke-opacity="0.8"/><path d="M147.7 95.8L147.7 143.2" stroke-width="0.45" stroke-opacity="0.8"/><path d="M146.3 95.8L146.3 143.2" stroke-width="0.45" stroke-opacity="0.8"/><path d="M144.9 95.8L144.9 143.2" stroke-width="0.45" stroke-opacity="0.8"/><path d="M143.5 95.8L143.5 143.2" stroke-width="0.45" stroke-opacity="0.8"/></g><path d="M145 114A21 7 0 0 0 187 114V118A21 7 0 0 1 145 118Z" stroke-width="1" stroke-opacity="0.9"/><path d="M145 114a21 7 0 1 0 42 0a21 7 0 1 0 -42 0Z" stroke-width="1.1" stroke-opacity="0.9"/><path d="M149.6 114a16.38 5.46 0 1 0 32.76 0a16.38 5.46 0 1 0 -32.76 0Z" stroke-width="0.5" stroke-opacity="0.6"/><g clip-path="url(#c10)"><path d="M171.1 94L196.5 108.6" stroke-width="0.4" stroke-opacity="0.55"/><path d="M170 95.9L195.4 110.6" stroke-width="0.4" stroke-opacity="0.55"/><path d="M168.9 97.8L194.3 112.5" stroke-width="0.4" stroke-opacity="0.55"/><path d="M167.8 99.7L193.2 114.4" stroke-width="0.4" stroke-opacity="0.55"/><path d="M166.7 101.7L192.1 116.3" stroke-width="0.4" stroke-opacity="0.55"/><path d="M165.6 103.6L191 118.2" stroke-width="0.4" stroke-opacity="0.55"/><path d="M164.5 105.5L189.9 120.1" stroke-width="0.4" stroke-opacity="0.55"/><path d="M163.4 107.4L188.8 122" stroke-width="0.4" stroke-opacity="0.55"/><path d="M162.3 109.3L187.7 123.9" stroke-width="0.4" stroke-opacity="0.55"/><path d="M161.2 111.2L186.6 125.8" stroke-width="0.4" stroke-opacity="0.55"/><path d="M160.1 113.1L185.5 127.7" stroke-width="0.4" stroke-opacity="0.55"/><path d="M159 115L184.4 129.6" stroke-width="0.4" stroke-opacity="0.55"/><path d="M157.9 116.9L183.3 131.5" stroke-width="0.4" stroke-opacity="0.55"/><path d="M156.8 118.8L182.2 133.4" stroke-width="0.4" stroke-opacity="0.55"/></g><path d="M166 111.1L168.2 113L174.4 113.1L169.6 114.4L171.2 116.4L166 115.3L160.8 116.4L162.4 114.4L157.6 113.1L163.8 113Z" stroke-width="0.7" stroke-opacity="0.8"/><g clip-path="url(#c11)"><path d="M150.7 60.8L150.7 106.2" stroke-width="0.45" stroke-opacity="0.8"/><path d="M149.3 60.8L149.3 106.2" stroke-width="0.45" stroke-opacity="0.8"/><path d="M147.9 60.8L147.9 106.2" stroke-width="0.45" stroke-opacity="0.8"/><path d="M146.5 60.8L146.5 106.2" stroke-width="0.45" stroke-opacity="0.8"/><path d="M145.1 60.8L145.1 106.2" stroke-width="0.45" stroke-opacity="0.8"/><path d="M143.7 60.8L143.7 106.2" stroke-width="0.45" stroke-opacity="0.8"/><path d="M142.3 60.8L142.3 106.2" stroke-width="0.45" stroke-opacity="0.8"/><path d="M140.9 60.8L140.9 106.2" stroke-width="0.45" stroke-opacity="0.8"/><path d="M139.5 60.8L139.5 106.2" stroke-width="0.45" stroke-opacity="0.8"/><path d="M138.1 60.8L138.1 106.2" stroke-width="0.45" stroke-opacity="0.8"/><path d="M136.7 60.8L136.7 106.2" stroke-width="0.45" stroke-opacity="0.8"/><path d="M135.3 60.8L135.3 106.2" stroke-width="0.45" stroke-opacity="0.8"/><path d="M133.9 60.8L133.9 106.2" stroke-width="0.45" stroke-opacity="0.8"/><path d="M132.5 60.8L132.5 106.2" stroke-width="0.45" stroke-opacity="0.8"/><path d="M131.1 60.8L131.1 106.2" stroke-width="0.45" stroke-opacity="0.8"/><path d="M129.7 60.8L129.7 106.2" stroke-width="0.45" stroke-opacity="0.8"/><path d="M128.3 60.8L128.3 106.2" stroke-width="0.45" stroke-opacity="0.8"/><path d="M126.9 60.8L126.9 106.2" stroke-width="0.45" stroke-opacity="0.8"/><path d="M125.5 60.8L125.5 106.2" stroke-width="0.45" stroke-opacity="0.8"/><path d="M124.1 60.8L124.1 106.2" stroke-width="0.45" stroke-opacity="0.8"/><path d="M122.7 60.8L122.7 106.2" stroke-width="0.45" stroke-opacity="0.8"/><path d="M121.3 60.8L121.3 106.2" stroke-width="0.45" stroke-opacity="0.8"/><path d="M119.9 60.8L119.9 106.2" stroke-width="0.45" stroke-opacity="0.8"/><path d="M118.5 60.8L118.5 106.2" stroke-width="0.45" stroke-opacity="0.8"/><path d="M117.1 60.8L117.1 106.2" stroke-width="0.45" stroke-opacity="0.8"/><path d="M115.7 60.8L115.7 106.2" stroke-width="0.45" stroke-opacity="0.8"/><path d="M114.3 60.8L114.3 106.2" stroke-width="0.45" stroke-opacity="0.8"/><path d="M112.9 60.8L112.9 106.2" stroke-width="0.45" stroke-opacity="0.8"/><path d="M111.5 60.8L111.5 106.2" stroke-width="0.45" stroke-opacity="0.8"/><path d="M110.1 60.8L110.1 106.2" stroke-width="0.45" stroke-opacity="0.8"/><path d="M108.7 60.8L108.7 106.2" stroke-width="0.45" stroke-opacity="0.8"/><path d="M107.3 60.8L107.3 106.2" stroke-width="0.45" stroke-opacity="0.8"/><path d="M105.9 60.8L105.9 106.2" stroke-width="0.45" stroke-opacity="0.8"/></g><path d="M108 78A20 7 0 0 0 148 78V82A20 7 0 0 1 108 82Z" stroke-width="1" stroke-opacity="0.9"/><path d="M108 78a20 7 0 1 0 40 0a20 7 0 1 0 -40 0Z" stroke-width="1.1" stroke-opacity="0.9"/><path d="M112.4 78a15.600000000000001 5.46 0 1 0 31.200000000000003 0a15.600000000000001 5.46 0 1 0 -31.200000000000003 0Z" stroke-width="0.5" stroke-opacity="0.6"/><g clip-path="url(#c12)"><path d="M132.8 58.6L157.4 72.8" stroke-width="0.4" stroke-opacity="0.55"/><path d="M131.7 60.5L156.3 74.7" stroke-width="0.4" stroke-opacity="0.55"/><path d="M130.6 62.4L155.2 76.6" stroke-width="0.4" stroke-opacity="0.55"/><path d="M129.5 64.3L154.1 78.5" stroke-width="0.4" stroke-opacity="0.55"/><path d="M128.4 66.2L153 80.4" stroke-width="0.4" stroke-opacity="0.55"/><path d="M127.3 68.1L151.9 82.3" stroke-width="0.4" stroke-opacity="0.55"/><path d="M126.2 70L150.8 84.2" stroke-width="0.4" stroke-opacity="0.55"/><path d="M125.1 71.9L149.7 86.1" stroke-width="0.4" stroke-opacity="0.55"/><path d="M124 73.8L148.6 88" stroke-width="0.4" stroke-opacity="0.55"/><path d="M122.9 75.7L147.5 89.9" stroke-width="0.4" stroke-opacity="0.55"/><path d="M121.8 77.6L146.4 91.9" stroke-width="0.4" stroke-opacity="0.55"/><path d="M120.7 79.6L145.3 93.8" stroke-width="0.4" stroke-opacity="0.55"/><path d="M119.6 81.5L144.2 95.7" stroke-width="0.4" stroke-opacity="0.55"/></g><path d="M128 75.1L130.1 77L136 77.1L131.4 78.4L132.9 80.4L128 79.3L123.1 80.4L124.6 78.4L120 77.1L125.9 77Z" stroke-width="0.7" stroke-opacity="0.8"/><path d="M40 118Q44 190 66 200H178Q200 190 204 118A82 14 0 0 1 40 118Z" fill="#fafafc" stroke="none"/><path d="M40 118L66 200" stroke-width="0.7" stroke-opacity="0.75"/><path d="M54.9 121.4L76.2 200" stroke-width="0.7" stroke-opacity="0.75"/><path d="M69.8 124.5L86.4 200" stroke-width="0.7" stroke-opacity="0.75"/><path d="M84.7 127.1L96.5 200" stroke-width="0.7" stroke-opacity="0.75"/><path d="M99.6 128.9L106.7 200" stroke-width="0.7" stroke-opacity="0.75"/><path d="M114.5 129.9L116.9 200" stroke-width="0.7" stroke-opacity="0.75"/><path d="M129.5 129.9L127.1 200" stroke-width="0.7" stroke-opacity="0.75"/><path d="M144.4 128.9L137.3 200" stroke-width="0.7" stroke-opacity="0.75"/><path d="M159.3 127.1L147.5 200" stroke-width="0.7" stroke-opacity="0.75"/><path d="M174.2 124.5L157.6 200" stroke-width="0.7" stroke-opacity="0.75"/><path d="M189.1 121.4L167.8 200" stroke-width="0.7" stroke-opacity="0.75"/><path d="M204 118L178 200" stroke-width="0.7" stroke-opacity="0.75"/><path d="M44.4 132Q51.5 137 58.5 132" stroke-width="0.9" stroke-opacity="0.8"/><path d="M72.6 132Q79.7 137 86.7 132" stroke-width="0.9" stroke-opacity="0.8"/><path d="M100.8 132Q107.9 137 114.9 132" stroke-width="0.9" stroke-opacity="0.8"/><path d="M129.1 132Q136.1 137 143.2 132" stroke-width="0.9" stroke-opacity="0.8"/><path d="M157.3 132Q164.3 137 171.4 132" stroke-width="0.9" stroke-opacity="0.8"/><path d="M185.5 132Q192.5 137 199.6 132" stroke-width="0.9" stroke-opacity="0.8"/><path d="M61.7 144Q68.4 149 75.1 144" stroke-width="0.9" stroke-opacity="0.8"/><path d="M88.5 144Q95.2 149 101.9 144" stroke-width="0.9" stroke-opacity="0.8"/><path d="M115.3 144Q122 149 128.7 144" stroke-width="0.9" stroke-opacity="0.8"/><path d="M142.1 144Q148.8 149 155.5 144" stroke-width="0.9" stroke-opacity="0.8"/><path d="M168.9 144Q175.6 149 182.3 144" stroke-width="0.9" stroke-opacity="0.8"/><path d="M52 156Q58.4 161 64.8 156" stroke-width="0.9" stroke-opacity="0.8"/><path d="M77.5 156Q83.8 161 90.2 156" stroke-width="0.9" stroke-opacity="0.8"/><path d="M102.9 156Q109.3 161 115.6 156" stroke-width="0.9" stroke-opacity="0.8"/><path d="M128.4 156Q134.7 161 141.1 156" stroke-width="0.9" stroke-opacity="0.8"/><path d="M153.8 156Q160.2 161 166.5 156" stroke-width="0.9" stroke-opacity="0.8"/><path d="M179.2 156Q185.6 161 192 156" stroke-width="0.9" stroke-opacity="0.8"/><path d="M67.9 168Q73.9 173 79.9 168" stroke-width="0.9" stroke-opacity="0.8"/><path d="M91.9 168Q97.9 173 104 168" stroke-width="0.9" stroke-opacity="0.8"/><path d="M116 168Q122 173 128 168" stroke-width="0.9" stroke-opacity="0.8"/><path d="M140 168Q146.1 173 152.1 168" stroke-width="0.9" stroke-opacity="0.8"/><path d="M164.1 168Q170.1 173 176.1 168" stroke-width="0.9" stroke-opacity="0.8"/><path d="M59.7 180Q65.3 185 71 180" stroke-width="0.9" stroke-opacity="0.8"/><path d="M82.3 180Q88 185 93.7 180" stroke-width="0.9" stroke-opacity="0.8"/><path d="M105 180Q110.7 185 116.3 180" stroke-width="0.9" stroke-opacity="0.8"/><path d="M127.7 180Q133.3 185 139 180" stroke-width="0.9" stroke-opacity="0.8"/><path d="M150.3 180Q156 185 161.7 180" stroke-width="0.9" stroke-opacity="0.8"/><path d="M173 180Q178.7 185 184.3 180" stroke-width="0.9" stroke-opacity="0.8"/><path d="M74.1 192Q79.4 197 84.7 192" stroke-width="0.9" stroke-opacity="0.8"/><path d="M95.4 192Q100.7 197 106 192" stroke-width="0.9" stroke-opacity="0.8"/><path d="M116.7 192Q122 197 127.3 192" stroke-width="0.9" stroke-opacity="0.8"/><path d="M138 192Q143.3 197 148.6 192" stroke-width="0.9" stroke-opacity="0.8"/><path d="M159.3 192Q164.6 197 169.9 192" stroke-width="0.9" stroke-opacity="0.8"/><g clip-path="url(#c13)"><path d="M198.3 81.2L239.8 195.3" stroke-width="0.4" stroke-opacity="0.6"/><path d="M195.8 82.1L237.3 196.2" stroke-width="0.4" stroke-opacity="0.6"/><path d="M193.4 83L234.9 197.1" stroke-width="0.4" stroke-opacity="0.6"/><path d="M190.9 83.9L232.5 197.9" stroke-width="0.4" stroke-opacity="0.6"/><path d="M188.5 84.8L230 198.8" stroke-width="0.4" stroke-opacity="0.6"/><path d="M186.1 85.7L227.6 199.7" stroke-width="0.4" stroke-opacity="0.6"/><path d="M183.6 86.5L225.1 200.6" stroke-width="0.4" stroke-opacity="0.6"/><path d="M181.2 87.4L222.7 201.5" stroke-width="0.4" stroke-opacity="0.6"/><path d="M178.7 88.3L220.2 202.4" stroke-width="0.4" stroke-opacity="0.6"/><path d="M176.3 89.2L217.8 203.3" stroke-width="0.4" stroke-opacity="0.6"/><path d="M173.8 90.1L215.4 204.2" stroke-width="0.4" stroke-opacity="0.6"/><path d="M171.4 91L212.9 205.1" stroke-width="0.4" stroke-opacity="0.6"/><path d="M169 91.9L210.5 205.9" stroke-width="0.4" stroke-opacity="0.6"/><path d="M166.5 92.8L208 206.8" stroke-width="0.4" stroke-opacity="0.6"/><path d="M164.1 93.7L205.6 207.7" stroke-width="0.4" stroke-opacity="0.6"/><path d="M161.6 94.5L203.1 208.6" stroke-width="0.4" stroke-opacity="0.6"/><path d="M159.2 95.4L200.7 209.5" stroke-width="0.4" stroke-opacity="0.6"/><path d="M156.7 96.3L198.3 210.4" stroke-width="0.4" stroke-opacity="0.6"/><path d="M154.3 97.2L195.8 211.3" stroke-width="0.4" stroke-opacity="0.6"/><path d="M151.9 98.1L193.4 212.2" stroke-width="0.4" stroke-opacity="0.6"/><path d="M149.4 99L190.9 213.1" stroke-width="0.4" stroke-opacity="0.6"/><path d="M147 99.9L188.5 213.9" stroke-width="0.4" stroke-opacity="0.6"/><path d="M144.5 100.8L186 214.8" stroke-width="0.4" stroke-opacity="0.6"/><path d="M142.1 101.7L183.6 215.7" stroke-width="0.4" stroke-opacity="0.6"/><path d="M139.6 102.5L181.2 216.6" stroke-width="0.4" stroke-opacity="0.6"/><path d="M137.2 103.4L178.7 217.5" stroke-width="0.4" stroke-opacity="0.6"/><path d="M134.8 104.3L176.3 218.4" stroke-width="0.4" stroke-opacity="0.6"/><path d="M132.3 105.2L173.8 219.3" stroke-width="0.4" stroke-opacity="0.6"/><path d="M129.9 106.1L171.4 220.2" stroke-width="0.4" stroke-opacity="0.6"/><path d="M127.4 107L168.9 221.1" stroke-width="0.4" stroke-opacity="0.6"/><path d="M125 107.9L166.5 222" stroke-width="0.4" stroke-opacity="0.6"/><path d="M122.5 108.8L164.1 222.8" stroke-width="0.4" stroke-opacity="0.6"/><path d="M120.1 109.7L161.6 223.7" stroke-width="0.4" stroke-opacity="0.6"/><path d="M117.6 110.6L159.2 224.6" stroke-width="0.4" stroke-opacity="0.6"/><path d="M115.2 111.4L156.7 225.5" stroke-width="0.4" stroke-opacity="0.6"/><path d="M112.8 112.3L154.3 226.4" stroke-width="0.4" stroke-opacity="0.6"/><path d="M110.3 113.2L151.8 227.3" stroke-width="0.4" stroke-opacity="0.6"/><path d="M107.9 114.1L149.4 228.2" stroke-width="0.4" stroke-opacity="0.6"/><path d="M105.4 115L147 229.1" stroke-width="0.4" stroke-opacity="0.6"/><path d="M103 115.9L144.5 230" stroke-width="0.4" stroke-opacity="0.6"/><path d="M100.5 116.8L142.1 230.8" stroke-width="0.4" stroke-opacity="0.6"/><path d="M98.1 117.7L139.6 231.7" stroke-width="0.4" stroke-opacity="0.6"/><path d="M95.7 118.6L137.2 232.6" stroke-width="0.4" stroke-opacity="0.6"/><path d="M93.2 119.4L134.7 233.5" stroke-width="0.4" stroke-opacity="0.6"/><path d="M90.8 120.3L132.3 234.4" stroke-width="0.4" stroke-opacity="0.6"/><path d="M88.3 121.2L129.8 235.3" stroke-width="0.4" stroke-opacity="0.6"/><path d="M85.9 122.1L127.4 236.2" stroke-width="0.4" stroke-opacity="0.6"/></g><path d="M40 118Q44 190 66 200H178Q200 190 204 118A82 14 0 0 1 40 118Z" stroke-width="1.4" stroke-opacity="0.9"/><path d="M40 118A82 14 0 0 0 204 118" stroke-width="1.3" stroke-opacity="0.9"/><path d="M42 123A80 13 0 0 0 202 123" stroke-width="0.6" stroke-opacity="0.7"/></g></svg>